v -5.25000000 -0.29999950 16.00000000 
v 5.25000000 -0.29999950 16.00000000  
v -5.25000000 -0.29999900 32.00000000 
v -5.25000000 -0.30000050 -16.00000000
v 5.25000000 -0.30000050 -16.00000000 
v -5.25000000 -0.30000000 0.00000001  
v 5.25000000 -0.30000000 0.00000001   
v 5.25000000 -0.30000110 -32.00000000 
v -5.25000000 -0.30000110 -32.00000000
v 5.25000000 -0.29999900 32.00000000  
vt 1.00000 1.00000                    
vt 0.00000 1.00000                    
vt 1.00000 0.00000                    
vt 1.00000 3.00000                    
vt 0.00000 3.00000                    
vt 1.00000 2.00000                    
vt 0.00000 2.00000                    
vt 0.00000 4.00000                    
vt 1.00000 4.00000                    
vt 0.00000 0.00000                    
vn 0.00000000 1.00000000 0.00000000   
vn 0.00000000 1.00000000 0.00000000   
vn 0.00000000 1.00000000 0.00000000   
vn 0.00000000 1.00000000 0.00000000   
vn 0.00000000 1.00000000 0.00000000   
vn 0.00000000 1.00000000 0.00000000   
vn 0.00000000 1.00000000 0.00000000   
vn 0.00000000 1.00000000 0.00000000   
vn 0.00000000 1.00000000 0.00000000   
vn 0.00000000 1.00000000 0.00000000   
g br4Segment                          
f 1/1/1 3/3/3 2/2/2                   
f 4/4/4 6/6/6 5/5/5                   
f 1/1/1 2/2/2 7/7/7                   
f 4/4/4 5/5/5 8/8/8                   
f 9/9/9 4/4/4 8/8/8                   
f 6/6/6 1/1/1 7/7/7                   
f 3/3/3 10/10/10 2/2/2                
f 6/6/6 7/7/7 5/5/5                   


