v -7.75000000 -0.30000020 0.00000002  
v -4.74999800 -0.30000110 32.00000000 
v -7.74999500 -0.30000140 32.00000000 
v 4.74999800 -0.30000020 0.00000050   
v 7.74999500 -0.29999900 -32.00000000 
v 7.75000000 -0.30000020 0.00000001   
v -7.75000500 -0.29999900 -32.00000000
v -4.75000200 -0.30000000 -0.00000050 
v 0.00000000 -0.30000040 0.00000002   
v 0.00000483 -0.30000110 32.00000000  
v 4.75000200 -0.30000140 32.00000000  
v 7.75000500 -0.30000140 32.00000000  
vt 1.00000 2.00000                    
vt 0.81250 0.00000                    
vt 1.00000 0.00000                    
vt 0.18750 2.00000                    
vt 0.00000 4.00000                    
vt 0.00000 2.00000                    
vt 1.00000 4.00000                    
vt 0.81250 2.00000                    
vt 0.50000 2.00000                    
vt 0.50000 0.00000                    
vt 0.18750 0.00000                    
vt 0.00000 0.00000                    
vn -0.00000010 1.00000000 0.00000000  
vn -0.00000010 1.00000000 0.00000000  
vn -0.00000010 1.00000000 0.00000000  
vn 0.00000000 1.00000000 0.00000000   
vn 0.00000000 1.00000000 0.00000000   
vn 0.00000000 1.00000000 0.00000000   
vn 0.00000000 1.00000000 0.00000000   
vn 0.00000000 1.00000000 0.00000000   
vn 0.00000000 1.00000000 0.00000000   
vn 0.00000000 1.00000000 0.00000000   
vn 0.00000000 1.00000000 0.00000000   
vn 0.00000000 1.00000000 0.00000000   
g br4NodeLC                           
f 1/1/1 3/3/3 2/2/2                   
f 4/4/4 6/6/6 5/5/5                   
f 7/7/7 1/1/1 8/8/8                   
f 9/9/9 4/4/4 5/5/5                   
f 8/8/8 10/10/10 9/9/9                
f 8/8/8 2/2/2 10/10/10                
f 7/7/7 9/9/9 5/5/5                   
f 1/1/1 2/2/2 8/8/8                   
f 7/7/7 8/8/8 9/9/9                   
f 9/9/9 11/11/11 4/4/4                
f 9/9/9 10/10/10 11/11/11             
f 4/4/4 12/12/12 6/6/6                
f 4/4/4 11/11/11 12/12/12             


