v -11.69999700 0.00500000 16.00000000 
v -13.49999900 0.00100000 16.00000000 
v -13.50000100 0.00100000 32.00000000 
v -11.69999800 0.00500000 32.00000000 
v -11.69999600 0.00500000 0.00000000  
v -13.49999700 0.00100000 0.00000000  
v -11.69999500 0.00500000 -16.00000000
v -13.49999500 0.00100000 -16.00000000
v -11.69999400 0.00500000 -32.00000000
v -13.49999300 0.00100000 -32.00000000
v 0.00000191 0.02000000 -16.00000000  
v 11.70000000 0.00500000 -16.00000000 
v 11.70000000 0.00500000 -32.00000000 
v 0.00000286 0.02000000 -32.00000000  
v 0.00000095 0.02000000 0.00000000    
v 11.70000000 0.00500000 0.00000000   
v 0.00000000 0.02000000 16.00000000   
v 11.70000000 0.00500000 16.00000000  
v -0.00000095 0.02000000 32.00000000  
v 11.70000000 0.00500000 32.00000000  
v -11.69999700 0.00500000 16.00000000 
v -11.69999800 0.00500000 32.00000000 
v -0.00000095 0.02000000 32.00000000  
v 0.00000000 0.02000000 16.00000000   
v -11.69999600 0.00500000 0.00000000  
v 0.00000095 0.02000000 0.00000000    
v -11.69999500 0.00500000 -16.00000000
v 0.00000191 0.02000000 -16.00000000  
v -11.69999400 0.00500000 -32.00000000
v 0.00000286 0.02000000 -32.00000000  
v 11.70000000 0.00500000 -16.00000000 
v 13.49999900 0.00100000 -16.00000000 
v 13.49999900 0.00100000 -32.00000000 
v 11.70000000 0.00500000 -32.00000000 
v 11.70000000 0.00500000 0.00000000   
v 13.49999900 0.00100000 0.00000000   
v 11.70000000 0.00500000 16.00000000  
v 13.49999900 0.00100000 16.00000000  
v 11.70000000 0.00500000 32.00000000  
v 13.49999900 0.00100000 32.00000000  
vt 0.05500 0.74999                    
vt 0.02822 0.74999                    
vt 0.02822 0.99998                    
vt 0.05500 0.99998                    
vt 0.05500 0.50000                    
vt 0.02822 0.50000                    
vt 0.05500 0.25001                    
vt 0.02822 0.25001                    
vt 0.05500 0.00002                    
vt 0.02822 0.00002                    
vt 0.49028 0.25006                    
vt 0.55023 0.25006                    
vt 0.55023 0.00011                    
vt 0.49028 0.00011                    
vt 0.49028 0.50000                    
vt 0.55023 0.50000                    
vt 0.49028 0.74994                    
vt 0.55023 0.74994                    
vt 0.49028 0.99989                    
vt 0.55023 0.99989                    
vt 0.55023 0.74994                    
vt 0.55023 0.99989                    
vt 0.49028 0.99989                    
vt 0.49028 0.74994                    
vt 0.55023 0.50000                    
vt 0.49028 0.50000                    
vt 0.55023 0.25006                    
vt 0.49028 0.25006                    
vt 0.55023 0.00011                    
vt 0.49028 0.00011                    
vt 0.05500 0.74999                    
vt 0.02822 0.74999                    
vt 0.02822 0.99998                    
vt 0.05500 0.99998                    
vt 0.05500 0.50000                    
vt 0.02822 0.50000                    
vt 0.05500 0.25001                    
vt 0.02822 0.25001                    
vt 0.05500 0.00002                    
vt 0.02822 0.00002                    
vn -0.00222221 0.99999760 0.00000000  
vn -0.00222221 0.99999760 0.00000000  
vn -0.00222221 0.99999760 0.00000000  
vn -0.00222221 0.99999760 0.00000000  
vn -0.00222222 0.99999760 0.00000000  
vn -0.00222222 0.99999760 0.00000000  
vn -0.00222222 0.99999760 0.00000000  
vn -0.00222222 0.99999760 0.00000000  
vn -0.00222222 0.99999760 0.00000000  
vn -0.00222222 0.99999760 0.00000000  
vn 0.00241935 0.99999710 0.00000000   
vn 0.00241935 0.99999710 0.00000000   
vn 0.00241935 0.99999710 0.00000000   
vn 0.00241935 0.99999710 0.00000000   
vn 0.00241935 0.99999710 0.00000000   
vn 0.00241935 0.99999710 0.00000000   
vn 0.00241935 0.99999710 0.00000000   
vn 0.00241935 0.99999710 0.00000000   
vn 0.00241935 0.99999710 0.00000000   
vn 0.00241935 0.99999710 0.00000000   
vn -0.00241935 0.99999710 0.00000000  
vn -0.00241935 0.99999710 0.00000000  
vn -0.00241935 0.99999710 0.00000000  
vn -0.00241935 0.99999710 0.00000000  
vn -0.00241935 0.99999710 0.00000000  
vn -0.00241935 0.99999710 0.00000000  
vn -0.00241935 0.99999710 0.00000000  
vn -0.00241935 0.99999710 0.00000000  
vn -0.00241935 0.99999710 0.00000000  
vn -0.00241935 0.99999710 0.00000000  
vn 0.00222222 0.99999760 0.00000000   
vn 0.00222222 0.99999760 0.00000000   
vn 0.00222222 0.99999760 0.00000000   
vn 0.00222222 0.99999760 0.00000000   
vn 0.00222222 0.99999760 0.00000000   
vn 0.00222222 0.99999760 0.00000000   
vn 0.00222222 0.99999760 0.00000000   
vn 0.00222222 0.99999760 0.00000000   
vn 0.00222222 0.99999760 0.00000000   
vn 0.00222222 0.99999760 0.00000000   
g br4_pedStreet_node_3_lod            
f 1/1/1 2/2/2 3/3/3                   
f 1/1/1 3/3/3 4/4/4                   
f 5/5/5 2/2/2 1/1/1                   
f 5/5/5 6/6/6 2/2/2                   
f 7/7/7 6/6/6 5/5/5                   
f 7/7/7 8/8/8 6/6/6                   
f 9/9/9 8/8/8 7/7/7                   
f 9/9/9 10/10/10 8/8/8                
f 11/11/11 12/12/12 13/13/13          
f 11/11/11 13/13/13 14/14/14          
f 15/15/15 12/12/12 11/11/11          
f 15/15/15 16/16/16 12/12/12          
f 17/17/17 16/16/16 15/15/15          
f 17/17/17 18/18/18 16/16/16          
f 19/19/19 18/18/18 17/17/17          
f 19/19/19 20/20/20 18/18/18          
f 21/21/21 22/22/22 23/23/23          
f 21/21/21 23/23/23 24/24/24          
f 25/25/25 21/21/21 24/24/24          
f 25/25/25 24/24/24 26/26/26          
f 27/27/27 25/25/25 26/26/26          
f 27/27/27 26/26/26 28/28/28          
f 29/29/29 27/27/27 28/28/28          
f 29/29/29 28/28/28 30/30/30          
f 31/31/31 32/32/32 33/33/33          
f 31/31/31 33/33/33 34/34/34          
f 35/35/35 32/32/32 31/31/31          
f 35/35/35 36/36/36 32/32/32          
f 37/37/37 36/36/36 35/35/35          
f 37/37/37 38/38/38 36/36/36          
f 39/39/39 38/38/38 37/37/37          
f 39/39/39 40/40/40 38/38/38          


