v 18.20000000 0.00500000 -16.00000000 
v 19.99999900 0.00100000 -16.00000000 
v 19.99999900 0.00100000 -32.00000000 
v 18.20000000 0.00500000 -32.00000000 
v 18.20000000 0.00500000 0.00000000   
v 19.99999900 0.00100000 0.00000000   
v 18.20000000 0.00500000 16.00000000  
v 19.99999900 0.00100000 16.00000000  
v 18.20000000 0.00500000 32.00000000  
v 19.99999900 0.00100000 32.00000000  
v -18.19999500 0.00500000 -16.00000000
v -18.19999400 0.00500000 -32.00000000
v -19.99999300 0.00100000 -32.00000000
v -19.99999500 0.00100000 -16.00000000
v -18.19999600 0.00500000 0.00000000  
v -19.99999700 0.00100000 0.00000000  
v -18.19999700 0.00500000 16.00000000 
v -19.99999900 0.00100000 16.00000000 
v -18.19999800 0.00500000 32.00000000 
v -20.00000100 0.00100000 32.00000000 
vt 0.05500 0.74999                    
vt 0.02822 0.74999                    
vt 0.02822 0.99998                    
vt 0.05500 0.99998                    
vt 0.05500 0.50000                    
vt 0.02822 0.50000                    
vt 0.05500 0.25001                    
vt 0.02822 0.25001                    
vt 0.05500 0.00002                    
vt 0.02822 0.00002                    
vt 0.05500 0.25001                    
vt 0.05500 0.00002                    
vt 0.02822 0.00002                    
vt 0.02822 0.25001                    
vt 0.05500 0.50000                    
vt 0.02822 0.50000                    
vt 0.05500 0.74999                    
vt 0.02822 0.74999                    
vt 0.05500 0.99998                    
vt 0.02822 0.99998                    
vn 0.00222222 0.99999760 0.00000000   
vn 0.00222222 0.99999760 0.00000000   
vn 0.00222222 0.99999760 0.00000000   
vn 0.00222222 0.99999760 0.00000000   
vn 0.00222222 0.99999760 0.00000000   
vn 0.00222222 0.99999760 0.00000000   
vn 0.00222222 0.99999760 0.00000000   
vn 0.00222222 0.99999760 0.00000000   
vn 0.00222222 0.99999760 0.00000000   
vn 0.00222222 0.99999760 0.00000000   
vn -0.00222222 0.99999760 0.00000000  
vn -0.00222222 0.99999760 0.00000000  
vn -0.00222222 0.99999760 0.00000000  
vn -0.00222222 0.99999760 0.00000000  
vn -0.00222222 0.99999760 0.00000000  
vn -0.00222222 0.99999760 0.00000000  
vn -0.00222221 0.99999760 0.00000000  
vn -0.00222221 0.99999760 0.00000000  
vn -0.00222221 0.99999760 0.00000000  
vn -0.00222221 0.99999760 0.00000000  
g br4_pedStreet_node_2_lod            
f 1/1/1 2/2/2 3/3/3                   
f 1/1/1 3/3/3 4/4/4                   
f 5/5/5 2/2/2 1/1/1                   
f 5/5/5 6/6/6 2/2/2                   
f 7/7/7 6/6/6 5/5/5                   
f 7/7/7 8/8/8 6/6/6                   
f 9/9/9 8/8/8 7/7/7                   
f 9/9/9 10/10/10 8/8/8                
f 11/11/11 12/12/12 13/13/13          
f 11/11/11 13/13/13 14/14/14          
f 15/15/15 11/11/11 14/14/14          
f 15/15/15 14/14/14 16/16/16          
f 17/17/17 15/15/15 16/16/16          
f 17/17/17 16/16/16 18/18/18          
f 19/19/19 17/17/17 18/18/18          
f 19/19/19 18/18/18 20/20/20          


