# Blender 3.3.1
# www.blender.org
o basic_segment
v 0.000000 0.009995 32.000000
v 0.000000 0.009995 -32.000000
v 4.000000 0.009995 32.000000
v 4.000000 0.009995 -32.000000
v 5.001086 -1.522671 32.000000
v 5.001086 -1.522671 -32.000000
v -4.000000 0.009995 32.000000
v -4.000000 0.009995 -32.000000
v -5.001086 -1.522671 32.000000
v -5.001086 -1.522671 -32.000000
v 3.500000 0.009995 32.000000
v 3.500000 0.009995 -32.000000
v -3.500000 0.009995 32.000000
v -3.500000 0.009995 -32.000000
v 0.000000 0.009995 29.333334
v 0.000000 0.009995 26.666668
v 0.000000 0.009995 24.000002
v 0.000000 0.009995 21.333336
v 0.000000 0.009995 18.666670
v 0.000000 0.009995 16.000004
v 0.000000 0.009995 13.333337
v 0.000000 0.009995 10.666670
v 0.000000 0.009995 8.000003
v 0.000000 0.009995 5.333336
v 0.000000 0.009995 2.666669
v 0.000000 0.009995 0.000002
v 0.000000 0.009995 -2.666665
v 0.000000 0.009995 -5.333332
v 0.000000 0.009995 -7.999999
v 0.000000 0.009995 -10.666666
v 0.000000 0.009995 -13.333333
v 0.000000 0.009995 -16.000000
v 0.000000 0.009995 -18.666666
v 0.000000 0.009995 -21.333332
v 0.000000 0.009995 -24.000000
v 0.000000 0.009995 -26.666666
v 0.000000 0.009995 -29.333332
v 4.000000 0.009995 -29.333334
v 4.000000 0.009995 -26.666668
v 4.000000 0.009995 -24.000002
v 4.000000 0.009995 -21.333336
v 4.000000 0.009995 -18.666670
v 4.000000 0.009995 -16.000004
v 4.000000 0.009995 -13.333337
v 4.000000 0.009995 -10.666670
v 4.000000 0.009995 -8.000003
v 4.000000 0.009995 -5.333336
v 4.000000 0.009995 -2.666669
v 4.000000 0.009995 -0.000002
v 4.000000 0.009995 2.666665
v 4.000000 0.009995 5.333332
v 4.000000 0.009995 7.999999
v 4.000000 0.009995 10.666666
v 4.000000 0.009995 13.333333
v 4.000000 0.009995 16.000000
v 4.000000 0.009995 18.666666
v 4.000000 0.009995 21.333332
v 4.000000 0.009995 24.000000
v 4.000000 0.009995 26.666666
v 4.000000 0.009995 29.333332
v 5.001086 -1.522671 -29.333334
v 5.001086 -1.522671 -26.666668
v 5.001086 -1.522671 -24.000002
v 5.001086 -1.522671 -21.333336
v 5.001086 -1.522671 -18.666670
v 5.001086 -1.522671 -16.000004
v 5.001086 -1.522671 -13.333337
v 5.001086 -1.522671 -10.666670
v 5.001086 -1.522671 -8.000003
v 5.001086 -1.522671 -5.333336
v 5.001086 -1.522671 -2.666669
v 5.001086 -1.522671 -0.000002
v 5.001086 -1.522671 2.666665
v 5.001086 -1.522671 5.333332
v 5.001086 -1.522671 7.999999
v 5.001086 -1.522671 10.666666
v 5.001086 -1.522671 13.333333
v 5.001086 -1.522671 16.000000
v 5.001086 -1.522671 18.666666
v 5.001086 -1.522671 21.333332
v 5.001086 -1.522671 24.000000
v 5.001086 -1.522671 26.666666
v 5.001086 -1.522671 29.333332
v -4.000000 0.009995 -29.333334
v -4.000000 0.009995 -26.666668
v -4.000000 0.009995 -24.000002
v -4.000000 0.009995 -21.333336
v -4.000000 0.009995 -18.666670
v -4.000000 0.009995 -16.000004
v -4.000000 0.009995 -13.333337
v -4.000000 0.009995 -10.666670
v -4.000000 0.009995 -8.000003
v -4.000000 0.009995 -5.333336
v -4.000000 0.009995 -2.666669
v -4.000000 0.009995 -0.000002
v -4.000000 0.009995 2.666665
v -4.000000 0.009995 5.333332
v -4.000000 0.009995 7.999999
v -4.000000 0.009995 10.666666
v -4.000000 0.009995 13.333333
v -4.000000 0.009995 16.000000
v -4.000000 0.009995 18.666666
v -4.000000 0.009995 21.333332
v -4.000000 0.009995 24.000000
v -4.000000 0.009995 26.666666
v -4.000000 0.009995 29.333332
v -5.001086 -1.522671 -29.333334
v -5.001086 -1.522671 -26.666668
v -5.001086 -1.522671 -24.000002
v -5.001086 -1.522671 -21.333336
v -5.001086 -1.522671 -18.666670
v -5.001086 -1.522671 -16.000004
v -5.001086 -1.522671 -13.333337
v -5.001086 -1.522671 -10.666670
v -5.001086 -1.522671 -8.000003
v -5.001086 -1.522671 -5.333336
v -5.001086 -1.522671 -2.666669
v -5.001086 -1.522671 -0.000002
v -5.001086 -1.522671 2.666665
v -5.001086 -1.522671 5.333332
v -5.001086 -1.522671 7.999999
v -5.001086 -1.522671 10.666666
v -5.001086 -1.522671 13.333333
v -5.001086 -1.522671 16.000000
v -5.001086 -1.522671 18.666666
v -5.001086 -1.522671 21.333332
v -5.001086 -1.522671 24.000000
v -5.001086 -1.522671 26.666666
v -5.001086 -1.522671 29.333332
v 3.500000 0.009995 29.333334
v 3.500000 0.009995 26.666668
v 3.500000 0.009995 24.000002
v 3.500000 0.009995 21.333336
v 3.500000 0.009995 18.666670
v 3.500000 0.009995 16.000004
v 3.500000 0.009995 13.333337
v 3.500000 0.009995 10.666670
v 3.500000 0.009995 8.000003
v 3.500000 0.009995 5.333336
v 3.500000 0.009995 2.666669
v 3.500000 0.009995 0.000002
v 3.500000 0.009995 -2.666665
v 3.500000 0.009995 -5.333332
v 3.500000 0.009995 -7.999999
v 3.500000 0.009995 -10.666666
v 3.500000 0.009995 -13.333333
v 3.500000 0.009995 -16.000000
v 3.500000 0.009995 -18.666666
v 3.500000 0.009995 -21.333332
v 3.500000 0.009995 -24.000000
v 3.500000 0.009995 -26.666666
v 3.500000 0.009995 -29.333332
v -3.500000 0.009995 -29.333334
v -3.500000 0.009995 -26.666668
v -3.500000 0.009995 -24.000002
v -3.500000 0.009995 -21.333336
v -3.500000 0.009995 -18.666670
v -3.500000 0.009995 -16.000004
v -3.500000 0.009995 -13.333337
v -3.500000 0.009995 -10.666670
v -3.500000 0.009995 -8.000003
v -3.500000 0.009995 -5.333336
v -3.500000 0.009995 -2.666669
v -3.500000 0.009995 -0.000002
v -3.500000 0.009995 2.666665
v -3.500000 0.009995 5.333332
v -3.500000 0.009995 7.999999
v -3.500000 0.009995 10.666666
v -3.500000 0.009995 13.333333
v -3.500000 0.009995 16.000000
v -3.500000 0.009995 18.666666
v -3.500000 0.009995 21.333332
v -3.500000 0.009995 24.000000
v -3.500000 0.009995 26.666666
v -3.500000 0.009995 29.333332
vn 0.8372 0.5469 -0.0000
vn -0.0000 1.0000 -0.0000
vn -0.8372 0.5469 -0.0000
vt 0.516883 0.993518
vt 0.796952 0.993518
vt 0.796952 0.006482
vt 0.516883 0.006482
vt 0.163531 0.996900
vt 0.020284 0.993518
vt 0.020284 0.006482
vt 0.163531 -0.003100
vt 0.021081 0.996900
vt 0.021081 -0.003100
vt 0.163531 0.996900
vt 0.020284 0.993518
vt 0.163531 -0.003100
vt 0.020284 0.006482
vt 0.021081 0.996900
vt 0.021081 -0.003100
vt 0.168082 0.993518
vt 0.538643 0.993518
vt 0.538643 0.006482
vt 0.168082 0.006482
vt 0.168082 0.993518
vt 0.258575 0.993518
vt 0.168082 0.006482
vt 0.258575 0.006482
vt 0.516883 0.952391
vt 0.796952 0.952391
vt 0.796952 0.911265
vt 0.516883 0.911265
vt 0.796951 0.870138
vt 0.516883 0.870138
vt 0.796951 0.829012
vt 0.516883 0.829012
vt 0.796951 0.787885
vt 0.516883 0.787885
vt 0.796951 0.746759
vt 0.516883 0.746759
vt 0.796951 0.705632
vt 0.516883 0.705632
vt 0.796951 0.664506
vt 0.516883 0.664506
vt 0.796951 0.623379
vt 0.516883 0.623379
vt 0.796951 0.582253
vt 0.516883 0.582253
vt 0.796951 0.541126
vt 0.516883 0.541126
vt 0.796951 0.500000
vt 0.516883 0.500000
vt 0.796951 0.458873
vt 0.516883 0.458873
vt 0.796951 0.417747
vt 0.516883 0.417747
vt 0.796951 0.376621
vt 0.516883 0.376621
vt 0.796951 0.335494
vt 0.516883 0.335494
vt 0.796951 0.294368
vt 0.516883 0.294368
vt 0.796952 0.253241
vt 0.516883 0.253241
vt 0.796952 0.212115
vt 0.516883 0.212115
vt 0.796952 0.170988
vt 0.516883 0.170988
vt 0.796952 0.129862
vt 0.516883 0.129862
vt 0.796952 0.088735
vt 0.516883 0.088735
vt 0.796952 0.047609
vt 0.516883 0.047609
vt 0.020284 0.047609
vt 0.163531 0.038566
vt 0.020284 0.088735
vt 0.163531 0.080233
vt 0.020284 0.129862
vt 0.163531 0.121900
vt 0.020284 0.170988
vt 0.163531 0.163566
vt 0.020284 0.212115
vt 0.163531 0.205233
vt 0.020284 0.253241
vt 0.163531 0.246900
vt 0.020284 0.294368
vt 0.163531 0.288566
vt 0.020284 0.335494
vt 0.163531 0.330233
vt 0.020284 0.376621
vt 0.163531 0.371900
vt 0.020284 0.417747
vt 0.163531 0.413566
vt 0.020284 0.458874
vt 0.163531 0.455233
vt 0.020284 0.500000
vt 0.163531 0.496900
vt 0.020284 0.541126
vt 0.163531 0.538566
vt 0.020284 0.582253
vt 0.163531 0.580233
vt 0.020284 0.623379
vt 0.163531 0.621900
vt 0.020284 0.664506
vt 0.163531 0.663566
vt 0.020284 0.705632
vt 0.163531 0.705233
vt 0.020284 0.746759
vt 0.163531 0.746900
vt 0.020284 0.787885
vt 0.163531 0.788566
vt 0.020284 0.829012
vt 0.163531 0.830233
vt 0.020284 0.870138
vt 0.163531 0.871900
vt 0.020284 0.911265
vt 0.163531 0.913566
vt 0.020284 0.952391
vt 0.163531 0.955233
vt 0.021081 0.038566
vt 0.021081 0.080233
vt 0.021081 0.121900
vt 0.021081 0.163566
vt 0.021081 0.205233
vt 0.021081 0.246900
vt 0.021081 0.288566
vt 0.021081 0.330233
vt 0.021081 0.371900
vt 0.021081 0.413566
vt 0.021081 0.455233
vt 0.021081 0.496900
vt 0.021081 0.538566
vt 0.021081 0.580233
vt 0.021081 0.621900
vt 0.021081 0.663566
vt 0.021081 0.705233
vt 0.021081 0.746900
vt 0.021081 0.788566
vt 0.021081 0.830233
vt 0.021081 0.871900
vt 0.021081 0.913566
vt 0.021081 0.955233
vt 0.020284 0.047609
vt 0.163531 0.038566
vt 0.020284 0.088735
vt 0.163531 0.080233
vt 0.020284 0.129862
vt 0.163531 0.121900
vt 0.020284 0.170988
vt 0.163531 0.163566
vt 0.020284 0.212115
vt 0.163531 0.205233
vt 0.020284 0.253241
vt 0.163531 0.246900
vt 0.020284 0.294368
vt 0.163531 0.288566
vt 0.020284 0.335494
vt 0.163531 0.330233
vt 0.020284 0.376621
vt 0.163531 0.371900
vt 0.020284 0.417747
vt 0.163531 0.413566
vt 0.020284 0.458874
vt 0.163531 0.455233
vt 0.020284 0.500000
vt 0.163531 0.496900
vt 0.020284 0.541126
vt 0.163531 0.538566
vt 0.020284 0.582253
vt 0.163531 0.580233
vt 0.020284 0.623379
vt 0.163531 0.621900
vt 0.020284 0.664506
vt 0.163531 0.663566
vt 0.020284 0.705632
vt 0.163531 0.705233
vt 0.020284 0.746759
vt 0.163531 0.746900
vt 0.020284 0.787885
vt 0.163531 0.788566
vt 0.020284 0.829012
vt 0.163531 0.830233
vt 0.020284 0.870138
vt 0.163531 0.871900
vt 0.020284 0.911265
vt 0.163531 0.913566
vt 0.020284 0.952391
vt 0.163531 0.955233
vt 0.021081 0.038566
vt 0.021081 0.080233
vt 0.021081 0.121900
vt 0.021081 0.163566
vt 0.021081 0.205233
vt 0.021081 0.246900
vt 0.021081 0.288566
vt 0.021081 0.330233
vt 0.021081 0.371900
vt 0.021081 0.413566
vt 0.021081 0.455233
vt 0.021081 0.496900
vt 0.021081 0.538566
vt 0.021081 0.580233
vt 0.021081 0.621900
vt 0.021081 0.663566
vt 0.021081 0.705233
vt 0.021081 0.746900
vt 0.021081 0.788566
vt 0.021081 0.830233
vt 0.021081 0.871900
vt 0.021081 0.913566
vt 0.021081 0.955233
vt 0.538643 0.952391
vt 0.168082 0.952391
vt 0.538643 0.911265
vt 0.168082 0.911265
vt 0.538643 0.870138
vt 0.168082 0.870138
vt 0.538643 0.829012
vt 0.168082 0.829012
vt 0.538643 0.787885
vt 0.168082 0.787885
vt 0.538643 0.746759
vt 0.168082 0.746759
vt 0.538643 0.705632
vt 0.168082 0.705632
vt 0.538643 0.664506
vt 0.168082 0.664506
vt 0.538643 0.623379
vt 0.168082 0.623379
vt 0.538643 0.582253
vt 0.168082 0.582253
vt 0.538643 0.541126
vt 0.168082 0.541126
vt 0.538643 0.500000
vt 0.168082 0.500000
vt 0.538643 0.458873
vt 0.168082 0.458873
vt 0.538643 0.417747
vt 0.168082 0.417747
vt 0.538643 0.376621
vt 0.168082 0.376621
vt 0.538643 0.335494
vt 0.168082 0.335494
vt 0.538643 0.294368
vt 0.168082 0.294368
vt 0.538643 0.253241
vt 0.168082 0.253241
vt 0.538643 0.212115
vt 0.168082 0.212115
vt 0.538643 0.170988
vt 0.168082 0.170988
vt 0.538643 0.129862
vt 0.168082 0.129862
vt 0.538643 0.088735
vt 0.168082 0.088735
vt 0.538643 0.047609
vt 0.168082 0.047609
vt 0.258575 0.047609
vt 0.168082 0.047609
vt 0.258575 0.088735
vt 0.168082 0.088735
vt 0.258575 0.129862
vt 0.168082 0.129862
vt 0.258575 0.170988
vt 0.168082 0.170988
vt 0.258575 0.212115
vt 0.168082 0.212115
vt 0.258575 0.253241
vt 0.168082 0.253241
vt 0.258575 0.294368
vt 0.168082 0.294368
vt 0.258575 0.335494
vt 0.168082 0.335494
vt 0.258575 0.376621
vt 0.168082 0.376621
vt 0.258575 0.417747
vt 0.168082 0.417747
vt 0.258575 0.458874
vt 0.168082 0.458874
vt 0.258575 0.500000
vt 0.168082 0.500000
vt 0.258575 0.541126
vt 0.168082 0.541126
vt 0.258575 0.582253
vt 0.168082 0.582253
vt 0.258575 0.623379
vt 0.168082 0.623379
vt 0.258575 0.664506
vt 0.168082 0.664506
vt 0.258575 0.705632
vt 0.168082 0.705632
vt 0.258575 0.746759
vt 0.168082 0.746759
vt 0.258575 0.787885
vt 0.168082 0.787885
vt 0.258575 0.829012
vt 0.168082 0.829012
vt 0.258575 0.870138
vt 0.168082 0.870138
vt 0.258575 0.911265
vt 0.168082 0.911265
vt 0.258575 0.952391
vt 0.168082 0.952391
s 0
f 61/117/1 4/8/1 38/72/1
f 130/210/2 3/6/2 60/115/2
f 8/13/3 107/186/3 84/141/3
f 106/184/2 13/21/2 175/300/2
f 15/25/2 13/22/2 1/1/2
f 1/2/2 130/209/2 15/26/2
f 37/69/2 12/19/2 2/3/2
f 36/67/2 152/253/2 37/69/2
f 35/65/2 151/251/2 36/67/2
f 34/63/2 150/249/2 35/65/2
f 33/61/2 149/247/2 34/63/2
f 32/59/2 148/245/2 33/61/2
f 31/57/2 147/243/2 32/59/2
f 30/55/2 146/241/2 31/57/2
f 29/53/2 145/239/2 30/55/2
f 28/51/2 144/237/2 29/53/2
f 27/49/2 143/235/2 28/51/2
f 26/47/2 142/233/2 27/49/2
f 25/45/2 141/231/2 26/47/2
f 24/43/2 140/229/2 25/45/2
f 23/41/2 139/227/2 24/43/2
f 22/39/2 138/225/2 23/41/2
f 21/37/2 137/223/2 22/39/2
f 20/35/2 136/221/2 21/37/2
f 19/33/2 135/219/2 20/35/2
f 18/31/2 134/217/2 19/33/2
f 17/29/2 133/215/2 18/31/2
f 16/27/2 132/213/2 17/29/2
f 15/26/2 131/211/2 16/27/2
f 2/4/2 153/255/2 37/70/2
f 37/70/2 154/257/2 36/68/2
f 36/68/2 155/259/2 35/66/2
f 35/66/2 156/261/2 34/64/2
f 34/64/2 157/263/2 33/62/2
f 33/62/2 158/265/2 32/60/2
f 32/60/2 159/267/2 31/58/2
f 31/58/2 160/269/2 30/56/2
f 30/56/2 161/271/2 29/54/2
f 29/54/2 162/273/2 28/52/2
f 28/52/2 163/275/2 27/50/2
f 27/50/2 164/277/2 26/48/2
f 26/48/2 165/279/2 25/46/2
f 25/46/2 166/281/2 24/44/2
f 24/44/2 167/283/2 23/42/2
f 23/42/2 168/285/2 22/40/2
f 22/40/2 169/287/2 21/38/2
f 21/38/2 170/289/2 20/36/2
f 20/36/2 171/291/2 19/34/2
f 19/34/2 172/293/2 18/32/2
f 18/32/2 173/295/2 17/30/2
f 17/30/2 174/297/2 16/28/2
f 16/28/2 175/299/2 15/25/2
f 8/14/2 153/256/2 14/23/2
f 84/140/2 154/258/2 153/256/2
f 85/142/2 155/260/2 154/258/2
f 86/144/2 156/262/2 155/260/2
f 87/146/2 157/264/2 156/262/2
f 88/148/2 158/266/2 157/264/2
f 89/150/2 159/268/2 158/266/2
f 90/152/2 160/270/2 159/268/2
f 91/154/2 161/272/2 160/270/2
f 92/156/2 162/274/2 161/272/2
f 93/158/2 163/276/2 162/274/2
f 94/160/2 164/278/2 163/276/2
f 95/162/2 165/280/2 164/278/2
f 96/164/2 166/282/2 165/280/2
f 97/166/2 167/284/2 166/282/2
f 98/168/2 168/286/2 167/284/2
f 99/170/2 169/288/2 168/286/2
f 100/172/2 170/290/2 169/288/2
f 101/174/2 171/292/2 170/290/2
f 102/176/2 172/294/2 171/292/2
f 103/178/2 173/296/2 172/294/2
f 104/180/2 174/298/2 173/296/2
f 105/182/2 175/300/2 174/298/2
f 106/185/3 9/15/3 7/11/3
f 105/183/3 129/208/3 106/185/3
f 104/181/3 128/207/3 105/183/3
f 103/179/3 127/206/3 104/181/3
f 102/177/3 126/205/3 103/179/3
f 101/175/3 125/204/3 102/177/3
f 100/173/3 124/203/3 101/175/3
f 99/171/3 123/202/3 100/173/3
f 98/169/3 122/201/3 99/171/3
f 97/167/3 121/200/3 98/169/3
f 96/165/3 120/199/3 97/167/3
f 95/163/3 119/198/3 96/165/3
f 94/161/3 118/197/3 95/163/3
f 93/159/3 117/196/3 94/161/3
f 92/157/3 116/195/3 93/159/3
f 91/155/3 115/194/3 92/157/3
f 90/153/3 114/193/3 91/155/3
f 89/151/3 113/192/3 90/153/3
f 88/149/3 112/191/3 89/151/3
f 87/147/3 111/190/3 88/149/3
f 86/145/3 110/189/3 87/147/3
f 85/143/3 109/188/3 86/145/3
f 84/141/3 108/187/3 85/143/3
f 12/20/2 38/71/2 4/7/2
f 152/254/2 39/73/2 38/71/2
f 151/252/2 40/75/2 39/73/2
f 150/250/2 41/77/2 40/75/2
f 149/248/2 42/79/2 41/77/2
f 148/246/2 43/81/2 42/79/2
f 147/244/2 44/83/2 43/81/2
f 146/242/2 45/85/2 44/83/2
f 145/240/2 46/87/2 45/85/2
f 144/238/2 47/89/2 46/87/2
f 143/236/2 48/91/2 47/89/2
f 142/234/2 49/93/2 48/91/2
f 141/232/2 50/95/2 49/93/2
f 140/230/2 51/97/2 50/95/2
f 139/228/2 52/99/2 51/97/2
f 138/226/2 53/101/2 52/99/2
f 137/224/2 54/103/2 53/101/2
f 136/222/2 55/105/2 54/103/2
f 135/220/2 56/107/2 55/105/2
f 134/218/2 57/109/2 56/107/2
f 133/216/2 58/111/2 57/109/2
f 132/214/2 59/113/2 58/111/2
f 131/212/2 60/115/2 59/113/2
f 5/9/1 60/116/1 3/5/1
f 83/139/1 59/114/1 60/116/1
f 82/138/1 58/112/1 59/114/1
f 81/137/1 57/110/1 58/112/1
f 80/136/1 56/108/1 57/110/1
f 79/135/1 55/106/1 56/108/1
f 78/134/1 54/104/1 55/106/1
f 77/133/1 53/102/1 54/104/1
f 76/132/1 52/100/1 53/102/1
f 75/131/1 51/98/1 52/100/1
f 74/130/1 50/96/1 51/98/1
f 73/129/1 49/94/1 50/96/1
f 72/128/1 48/92/1 49/94/1
f 71/127/1 47/90/1 48/92/1
f 70/126/1 46/88/1 47/90/1
f 69/125/1 45/86/1 46/88/1
f 68/124/1 44/84/1 45/86/1
f 67/123/1 43/82/1 44/84/1
f 66/122/1 42/80/1 43/82/1
f 65/121/1 41/78/1 42/80/1
f 64/120/1 40/76/1 41/78/1
f 63/119/1 39/74/1 40/76/1
f 62/118/1 38/72/1 39/74/1
f 61/117/1 6/10/1 4/8/1
f 130/210/2 11/17/2 3/6/2
f 8/13/3 10/16/3 107/186/3
f 106/184/2 7/12/2 13/21/2
f 15/25/2 175/299/2 13/22/2
f 1/2/2 11/18/2 130/209/2
f 37/69/2 152/253/2 12/19/2
f 36/67/2 151/251/2 152/253/2
f 35/65/2 150/249/2 151/251/2
f 34/63/2 149/247/2 150/249/2
f 33/61/2 148/245/2 149/247/2
f 32/59/2 147/243/2 148/245/2
f 31/57/2 146/241/2 147/243/2
f 30/55/2 145/239/2 146/241/2
f 29/53/2 144/237/2 145/239/2
f 28/51/2 143/235/2 144/237/2
f 27/49/2 142/233/2 143/235/2
f 26/47/2 141/231/2 142/233/2
f 25/45/2 140/229/2 141/231/2
f 24/43/2 139/227/2 140/229/2
f 23/41/2 138/225/2 139/227/2
f 22/39/2 137/223/2 138/225/2
f 21/37/2 136/221/2 137/223/2
f 20/35/2 135/219/2 136/221/2
f 19/33/2 134/217/2 135/219/2
f 18/31/2 133/215/2 134/217/2
f 17/29/2 132/213/2 133/215/2
f 16/27/2 131/211/2 132/213/2
f 15/26/2 130/209/2 131/211/2
f 2/4/2 14/24/2 153/255/2
f 37/70/2 153/255/2 154/257/2
f 36/68/2 154/257/2 155/259/2
f 35/66/2 155/259/2 156/261/2
f 34/64/2 156/261/2 157/263/2
f 33/62/2 157/263/2 158/265/2
f 32/60/2 158/265/2 159/267/2
f 31/58/2 159/267/2 160/269/2
f 30/56/2 160/269/2 161/271/2
f 29/54/2 161/271/2 162/273/2
f 28/52/2 162/273/2 163/275/2
f 27/50/2 163/275/2 164/277/2
f 26/48/2 164/277/2 165/279/2
f 25/46/2 165/279/2 166/281/2
f 24/44/2 166/281/2 167/283/2
f 23/42/2 167/283/2 168/285/2
f 22/40/2 168/285/2 169/287/2
f 21/38/2 169/287/2 170/289/2
f 20/36/2 170/289/2 171/291/2
f 19/34/2 171/291/2 172/293/2
f 18/32/2 172/293/2 173/295/2
f 17/30/2 173/295/2 174/297/2
f 16/28/2 174/297/2 175/299/2
f 8/14/2 84/140/2 153/256/2
f 84/140/2 85/142/2 154/258/2
f 85/142/2 86/144/2 155/260/2
f 86/144/2 87/146/2 156/262/2
f 87/146/2 88/148/2 157/264/2
f 88/148/2 89/150/2 158/266/2
f 89/150/2 90/152/2 159/268/2
f 90/152/2 91/154/2 160/270/2
f 91/154/2 92/156/2 161/272/2
f 92/156/2 93/158/2 162/274/2
f 93/158/2 94/160/2 163/276/2
f 94/160/2 95/162/2 164/278/2
f 95/162/2 96/164/2 165/280/2
f 96/164/2 97/166/2 166/282/2
f 97/166/2 98/168/2 167/284/2
f 98/168/2 99/170/2 168/286/2
f 99/170/2 100/172/2 169/288/2
f 100/172/2 101/174/2 170/290/2
f 101/174/2 102/176/2 171/292/2
f 102/176/2 103/178/2 172/294/2
f 103/178/2 104/180/2 173/296/2
f 104/180/2 105/182/2 174/298/2
f 105/182/2 106/184/2 175/300/2
f 106/185/3 129/208/3 9/15/3
f 105/183/3 128/207/3 129/208/3
f 104/181/3 127/206/3 128/207/3
f 103/179/3 126/205/3 127/206/3
f 102/177/3 125/204/3 126/205/3
f 101/175/3 124/203/3 125/204/3
f 100/173/3 123/202/3 124/203/3
f 99/171/3 122/201/3 123/202/3
f 98/169/3 121/200/3 122/201/3
f 97/167/3 120/199/3 121/200/3
f 96/165/3 119/198/3 120/199/3
f 95/163/3 118/197/3 119/198/3
f 94/161/3 117/196/3 118/197/3
f 93/159/3 116/195/3 117/196/3
f 92/157/3 115/194/3 116/195/3
f 91/155/3 114/193/3 115/194/3
f 90/153/3 113/192/3 114/193/3
f 89/151/3 112/191/3 113/192/3
f 88/149/3 111/190/3 112/191/3
f 87/147/3 110/189/3 111/190/3
f 86/145/3 109/188/3 110/189/3
f 85/143/3 108/187/3 109/188/3
f 84/141/3 107/186/3 108/187/3
f 12/20/2 152/254/2 38/71/2
f 152/254/2 151/252/2 39/73/2
f 151/252/2 150/250/2 40/75/2
f 150/250/2 149/248/2 41/77/2
f 149/248/2 148/246/2 42/79/2
f 148/246/2 147/244/2 43/81/2
f 147/244/2 146/242/2 44/83/2
f 146/242/2 145/240/2 45/85/2
f 145/240/2 144/238/2 46/87/2
f 144/238/2 143/236/2 47/89/2
f 143/236/2 142/234/2 48/91/2
f 142/234/2 141/232/2 49/93/2
f 141/232/2 140/230/2 50/95/2
f 140/230/2 139/228/2 51/97/2
f 139/228/2 138/226/2 52/99/2
f 138/226/2 137/224/2 53/101/2
f 137/224/2 136/222/2 54/103/2
f 136/222/2 135/220/2 55/105/2
f 135/220/2 134/218/2 56/107/2
f 134/218/2 133/216/2 57/109/2
f 133/216/2 132/214/2 58/111/2
f 132/214/2 131/212/2 59/113/2
f 131/212/2 130/210/2 60/115/2
f 5/9/1 83/139/1 60/116/1
f 83/139/1 82/138/1 59/114/1
f 82/138/1 81/137/1 58/112/1
f 81/137/1 80/136/1 57/110/1
f 80/136/1 79/135/1 56/108/1
f 79/135/1 78/134/1 55/106/1
f 78/134/1 77/133/1 54/104/1
f 77/133/1 76/132/1 53/102/1
f 76/132/1 75/131/1 52/100/1
f 75/131/1 74/130/1 51/98/1
f 74/130/1 73/129/1 50/96/1
f 73/129/1 72/128/1 49/94/1
f 72/128/1 71/127/1 48/92/1
f 71/127/1 70/126/1 47/90/1
f 70/126/1 69/125/1 46/88/1
f 69/125/1 68/124/1 45/86/1
f 68/124/1 67/123/1 44/84/1
f 67/123/1 66/122/1 43/82/1
f 66/122/1 65/121/1 42/80/1
f 65/121/1 64/120/1 41/78/1
f 64/120/1 63/119/1 40/76/1
f 63/119/1 62/118/1 39/74/1
f 62/118/1 61/117/1 38/72/1
