v -0.00000948 -0.30000000 0.00000000   
v -25.28005056 -0.29999400 -32.00000000
v 25.27994628 -0.29999400 -32.00000000 
v 18.95998736 -0.30000000 0.00000000   
v -18.96001264 -0.30000000 0.00000200  
v -25.28001264 -0.30000000 0.00000400  
v 25.27998736 -0.30000000 0.00000000   
v -18.95996208 -0.30000700 32.00000000 
v -25.27996208 -0.30000700 32.00000000 
v 0.00003792 -0.30000600 32.00000000   
v 18.96003792 -0.30000600 32.00000000  
v 25.28003792 -0.30000700 32.00000000  
v 25.27994628 -1.99999400 -32.00000000 
v 25.27998736 -2.00000000 0.00000000   
v 25.28003792 -2.00000700 32.00000000  
v -25.28005372 -1.99999400 -32.00000000
v -25.28001264 -2.00000000 0.00000000  
v -25.27996208 -2.00000700 32.00000000 
v -25.28005372 -0.29999400 -32.00000000
v -25.28001264 -0.30000000 0.00000000  
v 25.27998736 -0.30000000 0.00000000   
v 25.28003792 -0.30000700 32.00000000  
v 25.27994628 -0.29999400 -32.00000000 
v 25.27998736 -2.00000000 0.00000000   
v 25.28003792 -2.00000700 32.00000000  
v -25.28001264 -2.00000000 0.00000000  
v -25.27996208 -2.00000700 32.00000000 
v -25.27996208 -0.30000700 32.00000000 
v 25.27994628 -1.99999400 -32.00000000 
v -25.28005372 -1.99999400 -32.00000000
vt 0.50031 0.50000                     
vt 0.16624 0.00005                     
vt 0.83438 0.00005                     
vt 0.75086 0.50000                     
vt 0.24976 0.50000                     
vt 0.16624 0.50000                     
vt 0.83438 0.50000                     
vt 0.24976 0.99995                     
vt 0.16624 0.99995                     
vt 0.50031 0.99995                     
vt 0.75086 0.99995                     
vt 0.83438 0.99995                     
vt 0.02529 0.00000                     
vt 0.12212 0.50000                     
vt 0.12212 1.00000                     
vt 0.12212 0.00000                     
vt 0.23371 0.50000                     
vt 0.23371 1.00000                     
vt 0.14427 0.00000                     
vt 0.14427 0.50000                     
vt 0.14427 0.50000                     
vt 0.14427 1.00000                     
vt 0.14427 0.00000                     
vt 0.02529 0.50000                     
vt 0.02529 1.00000                     
vt 0.12212 0.50000                     
vt 0.12212 1.00000                     
vt 0.14427 1.00000                     
vt 0.12212 0.00000                     
vt 0.23371 0.00000                     
vn 0.00000000 1.00000000 0.00000000    
vn 0.00000000 1.00000000 0.00000000    
vn 0.00000000 1.00000000 0.00000000    
vn 0.00000000 1.00000000 0.00000000    
vn 0.00000000 1.00000000 0.00000000    
vn 0.00000000 1.00000000 0.00000000    
vn 0.00000000 1.00000000 0.00000000    
vn 0.00000000 1.00000000 0.00000000    
vn 0.00000000 1.00000000 0.00000000    
vn 0.00000000 1.00000000 0.00000000    
vn 0.00000000 1.00000000 0.00000000    
vn 0.00000000 1.00000000 0.00000000    
vn 0.00000000 -1.00000000 0.00000000   
vn 1.00000000 0.00000000 0.00000000    
vn 1.00000000 0.00000000 0.00000000    
vn -1.00000000 0.00000000 0.00000000   
vn 0.00000000 -1.00000000 0.00000000   
vn 0.00000000 -1.00000000 0.00000000   
vn -1.00000000 0.00000000 0.00000000   
vn -1.00000000 0.00000000 0.00000000   
vn 1.00000000 0.00000000 0.00000000    
vn 1.00000000 0.00000000 0.00000000    
vn 1.00000000 0.00000000 0.00000000    
vn 0.00000000 -1.00000000 0.00000000   
vn 0.00000000 -1.00000000 0.00000000   
vn -1.00000000 0.00000000 0.00000000   
vn -1.00000000 0.00000000 0.00000000   
vn -1.00000000 0.00000000 0.00000000   
vn 1.00000000 0.00000000 0.00000000    
vn 0.00000000 -1.00000000 0.00000000   
g br4ElevatedNode                      
f 1/1/1 3/3/3 2/2/2                    
f 3/3/3 1/1/1 4/4/4                    
f 1/1/1 2/2/2 5/5/5                    
f 2/2/2 6/6/6 5/5/5                    
f 7/7/7 3/3/3 4/4/4                    
f 5/5/5 6/6/6 8/8/8                    
f 6/6/6 9/9/9 8/8/8                    
f 10/10/10 5/5/5 8/8/8                 
f 10/10/10 1/1/1 5/5/5                 
f 1/1/1 10/10/10 11/11/11              
f 4/4/4 1/1/1 11/11/11                 
f 12/12/12 4/4/4 11/11/11              
f 12/12/12 7/7/7 4/4/4                 
f 21/21/21 22/22/22 15/15/15           
f 23/23/23 21/21/21 14/14/14           
f 24/24/24 25/25/25 18/18/18           
f 13/13/13 24/24/24 17/17/17           
f 26/26/26 27/27/27 28/28/28           
f 16/16/16 26/26/26 20/20/20           
f 21/21/21 15/15/15 14/14/14           
f 23/23/23 14/14/14 29/29/29           
f 24/24/24 18/18/18 17/17/17           
f 13/13/13 17/17/17 30/30/30           
f 26/26/26 28/28/28 20/20/20           
f 16/16/16 20/20/20 19/19/19           


