o basic_node-2                        
v -1.75000000 -0.29999500 32.00000000 
v -1.75000000 -0.29999500 -32.00000000
v -1.75000000 0.00999500 32.00000000  
v -1.75000000 0.00999500 -32.00000000 
v -4.75000000 0.00999500 32.00000000  
v -4.75000000 0.00999500 -32.00000000 
v -5.19000000 -0.94000500 32.00000000 
v -5.19000000 -0.94000500 -32.00000000
v 1.75000000 -0.29999500 32.00000000  
v -0.00082300 -0.29999500 32.00000000 
v 1.75000000 -0.29999500 -32.00000000 
v -0.00082300 -0.29999500 -32.00000000
v 1.75000000 0.00999500 32.00000000   
v 1.75000000 0.00999500 -32.00000000  
v 4.75000000 0.00999500 32.00000000   
v 4.75000000 0.00999500 -32.00000000  
v 5.19000000 -0.94000500 32.00000000  
v 5.19000000 -0.94000500 -32.00000000 
v -1.75000000 -0.29999500 -24.00000000
v -1.75000000 -0.29999500 -16.00000000
v -1.75000000 -0.29999500 -8.00000000 
v -1.75000000 -0.29999500 0.00000000  
v -1.75000000 -0.29999500 8.00000000  
v -1.75000000 -0.29999500 16.00000000 
v -1.75000000 -0.29999500 24.00000000 
v -1.75000000 0.00999500 -24.00000000 
v -1.75000000 0.00999500 24.00000000  
v -4.75000000 0.00999500 -24.00000000 
v -4.75000000 0.00999500 -16.00000000 
v -4.75000000 0.00999500 -8.00000000  
v -4.75000000 0.00999500 0.00000000   
v -4.75000000 0.00999500 8.00000000   
v -4.75000000 0.00999500 16.00000000  
v -4.75000000 0.00999500 24.00000000  
v -5.19000000 -0.94000500 -24.00000000
v -5.19000000 -0.94000500 -16.00000000
v -5.19000000 -0.94000500 -8.00000000 
v -5.19000000 -0.94000500 0.00000000  
v -5.19000000 -0.94000500 8.00000000  
v -5.19000000 -0.94000500 16.00000000 
v -5.19000000 -0.94000500 24.00000000 
v 1.75000000 -0.29999500 -24.00000000 
v 1.75000000 -0.29999500 -16.00000000 
v 1.75000000 -0.29999500 -8.00000000  
v 1.75000000 -0.29999500 0.00000000   
v 1.75000000 -0.29999500 8.00000000   
v 1.75000000 -0.29999500 16.00000000  
v 1.75000000 -0.29999500 24.00000000  
v -0.00082300 -0.29999500 24.00000000 
v -0.00082300 -0.29999500 16.00000000 
v -0.00082300 -0.29999500 8.00000000  
v -0.00082300 -0.29999500 0.00000000  
v -0.00082300 -0.29999500 -8.00000000 
v -0.00082300 -0.29999500 -16.00000000
v -0.00082300 -0.29999500 -24.00000000
v 1.75000000 0.00999500 -24.00000000  
v 1.75000000 0.00999500 24.00000000   
v 4.75000000 0.00999500 -24.00000000  
v 4.75000000 0.00999500 -16.00000000  
v 4.75000000 0.00999500 -8.00000000   
v 4.75000000 0.00999500 0.00000000    
v 4.75000000 0.00999500 8.00000000    
v 4.75000000 0.00999500 16.00000000   
v 4.75000000 0.00999500 24.00000000   
v 5.19000000 -0.94000500 -24.00000000 
v 5.19000000 -0.94000500 -16.00000000 
v 5.19000000 -0.94000500 -8.00000000  
v 5.19000000 -0.94000500 0.00000000   
v 5.19000000 -0.94000500 8.00000000   
v 5.19000000 -0.94000500 16.00000000  
v 5.19000000 -0.94000500 24.00000000  
v 3.25000000 0.00999500 24.00000000   
v 3.25000000 0.00999500 16.00000000   
v 3.25000000 0.00999500 8.00000000    
v 3.25000000 0.00999500 0.00000000    
v 3.25000000 0.00999500 -8.00000000   
v 3.25000000 0.00999500 -16.00000000  
v 3.25000000 0.00999500 -24.00000000  
v -3.25000000 0.00999500 24.00000000  
v -3.25000000 0.00999500 16.00000000  
v -3.25000000 0.00999500 8.00000000   
v -3.25000000 0.00999500 0.00000000   
v -3.25000000 0.00999500 -8.00000000  
v -3.25000000 0.00999500 -16.00000000 
v -3.25000000 0.00999500 -24.00000000 
vn -0.0000 1.0000 -0.0000             
vn 1.0000 -0.0000 -0.0000             
vn -0.9074 0.4203 -0.0000             
vn -1.0000 -0.0000 -0.0000            
vn 0.9074 0.4203 -0.0000              
vn -0.2022 0.9786 0.0379              
vn -0.2024 0.9793 -0.0000             
vn -0.2022 0.9786 -0.0379             
vn 0.2022 0.9786 0.0379               
vn 0.2024 0.9793 -0.0000              
vn 0.2022 0.9786 -0.0379              
vt 0.206106 1.927215                  
vt 0.801784 1.000000                  
vt 0.206106 -0.927215                 
vt 0.801785 0.000000                  
vt 0.185803 -0.927215                 
vt 0.192604 1.927215                  
vt 0.192604 -0.927215                 
vt 0.185803 1.927215                  
vt 0.053674 -0.927215                 
vt 0.003494 1.000000                  
vt 0.003494 0.000000                  
vt 0.053674 1.927215                  
vt 0.019470 1.000000                  
vt 0.019470 0.000000                  
vt 0.206106 1.927215                  
vt 0.252096 1.000000                  
vt 0.527070 1.000000                  
vt 0.206106 -0.927215                 
vt 0.252097 0.000000                  
vt 0.527071 0.000000                  
vt 0.192604 1.927215                  
vt 0.185803 1.927215                  
vt 0.192604 -0.927215                 
vt 0.185803 -0.927215                 
vt 0.004462 0.000000                  
vt 0.053674 1.927215                  
vt 0.004462 1.000000                  
vt 0.053674 -0.927215                 
vt 0.020438 0.000000                  
vt 0.020438 1.000000                  
vt 0.206106 -0.570411                 
vt 0.801785 0.125000                  
vt 0.206106 -0.213608                 
vt 0.801785 0.250000                  
vt 0.185803 1.213608                  
vt 0.801785 0.375000                  
vt 0.185803 0.856804                  
vt 0.801785 0.500000                  
vt 0.185803 0.500000                  
vt 0.801785 0.625000                  
vt 0.185803 0.143196                  
vt 0.192604 1.213608                  
vt 0.185803 -0.213608                 
vt 0.801785 0.750000                  
vt 0.206106 1.570411                  
vt 0.801784 0.875000                  
vt 0.192604 -0.570411                 
vt 0.185803 1.570411                  
vt 0.185803 -0.570411                 
vt 0.192604 1.570411                  
vt 0.003494 0.125000                  
vt 0.053674 1.570411                  
vt 0.003494 0.250000                  
vt 0.053674 1.213608                  
vt 0.003494 0.375000                  
vt 0.053674 0.856804                  
vt 0.003494 0.500000                  
vt 0.053674 0.500000                  
vt 0.003494 0.625000                  
vt 0.053674 0.143196                  
vt 0.003494 0.750000                  
vt 0.053674 -0.213608                 
vt 0.003494 0.875000                  
vt 0.053674 -0.570411                 
vt 0.019470 0.125000                  
vt 0.019470 0.250000                  
vt 0.019470 0.375000                  
vt 0.019470 0.500000                  
vt 0.019470 0.625000                  
vt 0.019470 0.750000                  
vt 0.019470 0.875000                  
vt 0.206106 -0.570411                 
vt 0.252097 0.125000                  
vt 0.192604 -0.213608                 
vt 0.252097 0.250000                  
vt 0.185803 -0.213608                 
vt 0.252097 0.375000                  
vt 0.185803 0.143196                  
vt 0.252097 0.500000                  
vt 0.185803 0.500000                  
vt 0.252097 0.625000                  
vt 0.185803 0.856804                  
vt 0.206106 1.213608                  
vt 0.185803 1.213608                  
vt 0.252097 0.750000                  
vt 0.206106 1.570411                  
vt 0.252096 0.875000                  
vt 0.527070 0.875000                  
vt 0.527070 0.750000                  
vt 0.527070 0.625000                  
vt 0.527070 0.500000                  
vt 0.527070 0.375000                  
vt 0.527071 0.250000                  
vt 0.527071 0.125000                  
vt 0.192604 -0.570411                 
vt 0.185803 -0.570411                 
vt 0.192604 1.570411                  
vt 0.185803 1.570411                  
vt 0.004462 0.875000                  
vt 0.053674 -0.570411                 
vt 0.004462 0.750000                  
vt 0.053674 -0.213608                 
vt 0.004462 0.625000                  
vt 0.053674 0.143196                  
vt 0.004462 0.500000                  
vt 0.053674 0.500000                  
vt 0.004462 0.375000                  
vt 0.053674 0.856804                  
vt 0.004462 0.250000                  
vt 0.053674 1.213608                  
vt 0.004462 0.125000                  
vt 0.053674 1.570411                  
vt 0.020438 0.875000                  
vt 0.020438 0.750000                  
vt 0.020438 0.625000                  
vt 0.020438 0.500000                  
vt 0.020438 0.375000                  
vt 0.020438 0.250000                  
vt 0.020438 0.125000                  
vt 0.119738 1.570411                  
vt 0.119738 1.213608                  
vt 0.119738 0.856804                  
vt 0.119738 0.500000                  
vt 0.119738 0.143196                  
vt 0.119738 -0.213608                 
vt 0.119738 -0.570411                 
vt 0.119739 -0.570411                 
vt 0.119739 -0.213608                 
vt 0.119739 0.143196                  
vt 0.119739 0.500000                  
vt 0.119739 0.856804                  
vt 0.119739 1.213608                  
vt 0.119738 1.570411                  
g br4BasicNodeLowCurb                 
f 55/94/1 2/4/1 19/32/1               
f 2/3/2 26/47/2 19/31/2               
f 6/11/3 35/65/3 28/51/3              
f 11/19/1 55/94/1 42/73/1             
f 56/95/4 11/18/4 42/72/4             
f 79/127/1 34/64/1 5/9/1              
f 65/113/5 16/27/5 58/99/5            
f 17/29/5 64/111/5 15/25/5            
f 71/119/5 63/109/5 64/111/5          
f 70/118/5 62/107/5 63/109/5          
f 69/117/5 61/105/5 62/107/5          
f 68/116/5 60/103/5 61/105/5          
f 67/115/5 59/101/5 60/103/5          
f 66/114/5 58/99/5 59/101/5           
f 78/126/1 16/28/1 14/24/1            
f 64/112/1 73/121/1 72/120/1          
f 63/110/1 74/122/1 73/121/1          
f 62/108/1 75/123/1 74/122/1          
f 61/106/1 76/124/1 75/123/1          
f 60/104/1 77/125/1 76/124/1          
f 59/102/1 78/126/1 77/125/1          
f 13/21/4 48/86/4 9/15/4              
f 48/86/4 57/97/4 47/83/4             
f 65/113/5 18/30/5 16/27/5            
f 3/5/1 27/49/1 79/127/1              
f 5/9/1 3/5/1 79/127/1                
f 56/95/4 14/23/4 11/18/4             
f 43/74/4 56/95/4 42/72/4             
f 48/87/1 10/17/1 9/16/1              
f 47/85/1 49/88/1 48/87/1             
f 46/81/1 50/89/1 47/85/1             
f 45/79/1 51/90/1 46/81/1             
f 44/77/1 52/91/1 45/79/1             
f 43/75/1 53/92/1 44/77/1             
f 42/73/1 54/93/1 43/75/1             
f 34/63/3 7/13/3 5/10/3               
f 33/61/3 41/71/3 34/63/3             
f 32/59/3 40/70/3 33/61/3             
f 31/57/3 39/69/3 32/59/3             
f 30/55/3 38/68/3 31/57/3             
f 29/53/3 37/67/3 30/55/3             
f 28/51/3 36/66/3 29/53/3             
f 6/12/1 28/52/1 85/133/1             
f 80/128/1 34/64/1 79/127/1           
f 81/129/1 33/62/1 80/128/1           
f 82/130/1 32/60/1 81/129/1           
f 83/131/1 31/58/1 82/130/1           
f 84/132/1 30/56/1 83/131/1           
f 85/133/1 29/54/1 84/132/1           
f 25/45/2 3/6/2 1/1/2                 
f 25/45/2 24/42/2 27/50/2             
f 11/19/1 12/20/1 55/94/1             
f 6/11/3 8/14/3 35/65/3               
f 2/3/2 4/7/2 26/47/2                 
f 55/94/1 12/20/1 2/4/1               
f 20/33/2 19/31/2 26/47/2             
f 10/17/1 25/46/1 1/2/1               
f 49/88/1 24/44/1 25/46/1             
f 50/89/1 23/40/1 24/44/1             
f 51/90/1 22/38/1 23/40/1             
f 52/91/1 21/36/1 22/38/1             
f 53/92/1 20/34/1 21/36/1             
f 54/93/1 19/32/1 20/34/1             
f 77/125/6 56/96/6 43/76/6            
f 76/124/7 43/76/7 44/78/7            
f 75/123/7 44/78/7 45/80/7            
f 74/122/7 45/80/7 46/82/7            
f 73/121/7 46/82/7 47/84/7            
f 57/98/8 73/121/8 47/84/8            
f 26/48/9 84/132/9 20/35/9            
f 20/35/10 83/131/10 21/37/10         
f 21/37/10 82/130/10 22/39/10         
f 22/39/10 81/129/10 23/41/10         
f 23/41/10 80/128/10 24/43/10         
f 27/49/1 80/128/1 79/127/1           
f 15/26/1 64/112/1 72/120/1           
f 77/125/1 78/126/1 56/96/1           
f 26/48/1 85/133/1 84/132/1           
f 57/98/1 72/120/1 73/121/1           
f 27/49/11 24/43/11 80/128/11         
f 17/29/5 71/119/5 64/111/5           
f 71/119/5 70/118/5 63/109/5          
f 70/118/5 69/117/5 62/107/5          
f 69/117/5 68/116/5 61/105/5          
f 68/116/5 67/115/5 60/103/5          
f 67/115/5 66/114/5 59/101/5          
f 66/114/5 65/113/5 58/99/5           
f 14/24/1 56/96/1 78/126/1            
f 78/126/1 58/100/1 16/28/1           
f 64/112/1 63/110/1 73/121/1          
f 63/110/1 62/108/1 74/122/1          
f 62/108/1 61/106/1 75/123/1          
f 61/106/1 60/104/1 76/124/1          
f 60/104/1 59/102/1 77/125/1          
f 59/102/1 58/100/1 78/126/1          
f 13/21/4 57/97/4 48/86/4             
f 48/87/1 49/88/1 10/17/1             
f 47/85/1 50/89/1 49/88/1             
f 46/81/1 51/90/1 50/89/1             
f 45/79/1 52/91/1 51/90/1             
f 44/77/1 53/92/1 52/91/1             
f 43/75/1 54/93/1 53/92/1             
f 42/73/1 55/94/1 54/93/1             
f 34/63/3 41/71/3 7/13/3              
f 33/61/3 40/70/3 41/71/3             
f 32/59/3 39/69/3 40/70/3             
f 31/57/3 38/68/3 39/69/3             
f 30/55/3 37/67/3 38/68/3             
f 29/53/3 36/66/3 37/67/3             
f 28/51/3 35/65/3 36/66/3             
f 85/133/1 26/48/1 4/8/1              
f 4/8/1 6/12/1 85/133/1               
f 80/128/1 33/62/1 34/64/1            
f 81/129/1 32/60/1 33/62/1            
f 82/130/1 31/58/1 32/60/1            
f 83/131/1 30/56/1 31/58/1            
f 84/132/1 29/54/1 30/56/1            
f 85/133/1 28/52/1 29/54/1            
f 25/45/2 27/50/2 3/6/2               
f 10/17/1 49/88/1 25/46/1             
f 49/88/1 50/89/1 24/44/1             
f 50/89/1 51/90/1 23/40/1             
f 51/90/1 52/91/1 22/38/1             
f 52/91/1 53/92/1 21/36/1             
f 53/92/1 54/93/1 20/34/1             
f 54/93/1 55/94/1 19/32/1             
f 76/124/7 77/125/7 43/76/7           
f 75/123/7 76/124/7 44/78/7           
f 74/122/7 75/123/7 45/80/7           
f 73/121/7 74/122/7 46/82/7           
f 20/35/10 84/132/10 83/131/10        
f 21/37/10 83/131/10 82/130/10        
f 22/39/10 82/130/10 81/129/10        
f 23/41/10 81/129/10 80/128/10        
f 57/98/1 13/22/1 72/120/1            
f 13/22/1 15/26/1 72/120/1            


