v 30.70000000 0.00500000 -16.00000000 
v 30.70000000 0.00500000 -32.00000000 
v 0.00000286 0.02000000 -32.00000000  
v -0.00000095 0.14464380 -16.00000000 
v -0.00000095 0.14464380 0.00000000   
v 30.70000000 0.00500000 0.00000000   
v 0.00000286 0.14464380 16.00000000   
v 30.70000000 0.00500000 16.00000000  
v -0.00000095 0.02000000 32.00000000  
v 30.70000000 0.00500000 32.00000000  
v -0.00000095 0.14464380 -16.00000000 
v 0.00000286 0.02000000 -32.00000000  
v -30.69999400 0.00500000 -32.00000000
v -30.69999400 0.00500000 -16.00000000
v -30.69999800 0.00500000 0.00000000  
v -0.00000095 0.14464380 0.00000000   
v -30.69999800 0.00500000 16.00000000 
v 0.00000286 0.14464380 16.00000000   
v -30.69999800 0.00500000 32.00000000 
v -0.00000095 0.02000000 32.00000000  
vt 0.55023 0.25006                    
vt 0.55023 0.00011                    
vt 0.49028 0.00011                    
vt 0.49028 0.25006                    
vt 0.49028 0.50000                    
vt 0.55023 0.50000                    
vt 0.49028 0.74994                    
vt 0.55023 0.74994                    
vt 0.49028 0.99989                    
vt 0.55023 0.99989                    
vt 0.49028 0.25006                    
vt 0.49028 0.00011                    
vt 0.55023 0.00011                    
vt 0.55023 0.25006                    
vt 0.55023 0.50000                    
vt 0.49028 0.50000                    
vt 0.55023 0.74994                    
vt 0.49028 0.74994                    
vt 0.55023 0.99989                    
vt 0.49028 0.99989                    
vn 0.01247022 0.99991460 -0.00389479  
vn 0.01247022 0.99991460 -0.00389479  
vn 0.01247022 0.99991460 -0.00389479  
vn 0.01247022 0.99991460 -0.00389479  
vn 0.02251750 0.99974650 0.00000000   
vn 0.02251750 0.99974650 0.00000000   
vn 0.02251750 0.99974650 0.00000000   
vn 0.02251750 0.99974650 0.00000000   
vn 0.01247022 0.99991460 0.00389479   
vn 0.01247022 0.99991460 0.00389479   
vn -0.01247022 0.99991460 -0.00389479 
vn -0.01247022 0.99991460 -0.00389479 
vn -0.01247022 0.99991460 -0.00389479 
vn -0.01247022 0.99991460 -0.00389479 
vn -0.02251751 0.99974640 0.00000000  
vn -0.02251751 0.99974640 0.00000000  
vn -0.01247022 0.99991460 0.00389479  
vn -0.01247022 0.99991460 0.00389479  
vn -0.01247022 0.99991460 0.00389479  
vn -0.01247022 0.99991460 0.00389479  
g br4_pedStreet_node_1_lod            
f 1/1/1 2/2/2 3/3/3                   
f 1/1/1 3/3/3 4/4/4                   
f 5/5/5 1/1/1 4/4/4                   
f 5/5/5 6/6/6 1/1/1                   
f 7/7/7 6/6/6 5/5/5                   
f 7/7/7 8/8/8 6/6/6                   
f 9/9/9 8/8/8 7/7/7                   
f 9/9/9 10/10/10 8/8/8                
f 11/11/11 12/12/12 13/13/13          
f 11/11/11 13/13/13 14/14/14          
f 15/15/15 11/11/11 14/14/14          
f 15/15/15 16/16/16 11/11/11          
f 17/17/17 16/16/16 15/15/15          
f 17/17/17 18/18/18 16/16/16          
f 19/19/19 18/18/18 17/17/17          
f 19/19/19 20/20/20 18/18/18          


