v -23.50000000 -0.30000000 0.00000000  
v 23.50000000 -0.30000000 0.00000000   
v -23.50000000 -0.30000200 16.00000000 
v 23.50000000 -0.29999800 -16.00000000 
v 23.50000000 -0.30000200 16.00000000  
v -23.50000000 -0.30000400 32.00000000 
v 23.50000000 -0.30000400 32.00000000  
v -23.50000000 -0.29999800 -16.00000000
v 23.50000000 -0.29999600 -32.00000000 
v -23.50000000 -0.29999600 -32.00000000
v 23.50000000 -2.00000000 0.00000000   
v 23.50000000 -1.99999800 -16.00000000 
v 23.50000000 -2.00000200 16.00000000  
v 23.50000000 -2.00000400 32.00000000  
v 23.50000000 -1.99999600 -32.00000000 
v -23.50000000 -2.00000000 0.00000000  
v -23.50000000 -1.99999800 -16.00000000
v -23.50000000 -2.00000200 16.00000000 
v -23.50000000 -2.00000400 32.00000000 
v -23.50000000 -1.99999600 -32.00000000
v 23.50000000 -0.30000200 16.00000000  
v 23.50000000 -0.30000400 32.00000000  
v 23.50000000 -0.29999800 -16.00000000 
v 23.50000000 -0.30000000 0.00000000   
v 23.50000000 -0.29999600 -32.00000000 
v -23.50000000 -0.29999800 -16.00000000
v -23.50000000 -0.29999600 -32.00000000
v -23.50000000 -0.30000200 16.00000000 
v -23.50000000 -0.30000000 0.00000000  
v -23.50000000 -0.30000400 32.00000000 
v 23.50000000 -1.99999800 -16.00000000 
v 23.50000000 -2.00000000 0.00000000   
v 23.50000000 -2.00000200 16.00000000  
v 23.50000000 -2.00000400 32.00000000  
v -23.50000000 -1.99999800 -16.00000000
v -23.50000000 -2.00000200 16.00000000 
v -23.50000000 -2.00000400 32.00000000 
v -23.50000000 -2.00000000 0.00000000  
v 23.50000000 -1.99999600 -32.00000000 
v -23.50000000 -1.99999600 -32.00000000
vt 0.09679 0.50000                     
vt 0.90328 0.50000                     
vt 0.09679 0.74998                     
vt 0.90328 0.25003                     
vt 0.90328 0.74998                     
vt 0.09679 0.99995                     
vt 0.90328 0.99995                     
vt 0.09679 0.25003                     
vt 0.90328 0.00005                     
vt 0.09679 0.00005                     
vt 0.84089 0.50000                     
vt 0.84089 0.25003                     
vt 0.84089 0.74998                     
vt 0.84089 0.99995                     
vt 0.84089 0.00005                     
vt 0.84089 0.50000                     
vt 0.84089 0.25003                     
vt 0.84089 0.74998                     
vt 0.84089 0.99995                     
vt 0.84089 0.00005                     
vt 0.84089 0.74998                     
vt 0.84089 0.99995                     
vt 0.84089 0.25003                     
vt 0.84089 0.50000                     
vt 0.84089 0.00005                     
vt 0.84089 0.25003                     
vt 0.84089 0.00005                     
vt 0.84089 0.74998                     
vt 0.84089 0.50000                     
vt 0.84089 0.99995                     
vt 0.84089 0.25003                     
vt 0.84089 0.50000                     
vt 0.84089 0.74998                     
vt 0.84089 0.99995                     
vt 0.84089 0.25003                     
vt 0.84089 0.74998                     
vt 0.84089 0.99995                     
vt 0.84089 0.50000                     
vt 0.84089 0.00005                     
vt 0.84089 0.00005                     
vn 0.00000000 1.00000000 0.00000000    
vn 0.00000000 1.00000000 0.00000000    
vn 0.00000000 1.00000000 0.00000000    
vn 0.00000000 1.00000000 0.00000000    
vn 0.00000000 1.00000000 0.00000000    
vn 0.00000000 1.00000000 0.00000000    
vn 0.00000000 1.00000000 0.00000000    
vn 0.00000000 1.00000000 0.00000000    
vn 0.00000000 1.00000000 0.00000000    
vn 0.00000000 1.00000000 0.00000000    
vn 1.00000000 0.00000000 0.00000000    
vn 1.00000000 0.00000000 0.00000000    
vn 1.00000000 0.00000000 0.00000000    
vn 1.00000000 0.00000000 0.00000000    
vn 0.00000000 -1.00000000 0.00000000   
vn 0.00000000 -1.00000000 0.00000000   
vn 0.00000000 -1.00000000 0.00000000   
vn 0.00000000 -1.00000000 0.00000000   
vn 0.00000000 -1.00000000 0.00000000   
vn 0.00000000 -1.00000000 0.00000000   
vn 1.00000000 0.00000000 0.00000000    
vn 1.00000000 0.00000000 0.00000000    
vn 1.00000000 0.00000000 0.00000000    
vn 1.00000000 0.00000000 0.00000000    
vn 1.00000000 0.00000000 0.00000000    
vn -1.00000000 0.00000000 0.00000000   
vn -1.00000000 0.00000000 0.00000000   
vn -1.00000000 0.00000000 0.00000000   
vn -1.00000000 0.00000000 0.00000000   
vn -1.00000000 0.00000000 0.00000000   
vn 0.00000000 -1.00000000 0.00000000   
vn 0.00000000 -1.00000000 0.00000000   
vn 0.00000000 -1.00000000 0.00000000   
vn 0.00000000 -1.00000000 0.00000000   
vn -1.00000000 0.00000000 0.00000000   
vn -1.00000000 0.00000000 0.00000000   
vn -1.00000000 0.00000000 0.00000000   
vn -1.00000000 0.00000000 0.00000000   
vn 1.00000000 0.00000000 0.00000000    
vn -1.00000000 0.00000000 0.00000000   
g br4Elevated                          
f 1/1/1 3/3/3 2/2/2                    
f 2/2/2 4/4/4 1/1/1                    
f 3/3/3 5/5/5 2/2/2                    
f 3/3/3 6/6/6 5/5/5                    
f 7/7/7 5/5/5 6/6/6                    
f 8/8/8 1/1/1 4/4/4                    
f 8/8/8 4/4/4 9/9/9                    
f 10/10/10 8/8/8 9/9/9                 
f 21/21/21 22/22/22 14/14/14           
f 23/23/23 24/24/24 11/11/11           
f 25/25/25 23/23/23 12/12/12           
f 24/24/24 21/21/21 13/13/13           
f 15/15/15 31/31/31 17/17/17           
f 32/32/32 33/33/33 18/18/18           
f 33/33/33 34/34/34 19/19/19           
f 31/31/31 32/32/32 16/16/16           
f 35/35/35 26/26/26 27/27/27           
f 36/36/36 28/28/28 29/29/29           
f 37/37/37 30/30/30 28/28/28           
f 38/38/38 29/29/29 26/26/26           
f 21/21/21 14/14/14 13/13/13           
f 23/23/23 11/11/11 12/12/12           
f 25/25/25 12/12/12 39/39/39           
f 24/24/24 13/13/13 11/11/11           
f 15/15/15 17/17/17 20/20/20           
f 32/32/32 18/18/18 16/16/16           
f 33/33/33 19/19/19 18/18/18           
f 31/31/31 16/16/16 17/17/17           
f 35/35/35 27/27/27 40/40/40           
f 36/36/36 29/29/29 38/38/38           
f 37/37/37 28/28/28 36/36/36           
f 38/38/38 26/26/26 35/35/35           


