# Blender 3.3.1
# www.blender.org
o basic_node-3
v 1.749990 -0.299995 -32.000000
v 1.750010 -0.299995 32.000000
v 1.749990 -0.190005 -32.000000
v 1.750010 0.009995 32.000000
v 4.749990 0.009995 -32.000000
v 4.750010 0.009995 31.999998
v 5.189990 -0.940005 -32.000000
v 5.190011 -0.940005 31.999998
v -1.750010 -0.299995 -32.000000
v 0.000813 -0.299995 -32.000000
v -1.749990 -0.299995 32.000000
v 0.000834 -0.299995 32.000000
v -1.750010 -0.190005 -32.000000
v -1.749990 0.009995 32.000000
v -4.750010 0.009995 -31.999998
v -4.749990 0.009995 32.000000
v -5.190011 -0.940005 -31.999998
v -5.189990 -0.940005 32.000000
v 3.249990 0.009995 -32.000000
v -3.250010 0.009995 -31.999998
v 1.750009 -0.299995 28.000000
v 1.750008 -0.299995 24.000000
v 1.750007 -0.299995 20.000000
v 1.750005 -0.299995 15.999999
v 1.750004 -0.299995 11.999999
v 1.750003 -0.299995 8.000000
v 1.750001 -0.299995 4.000000
v 1.750000 -0.299995 -0.000001
v 1.749999 -0.299995 -4.000000
v 1.749997 -0.299995 -8.000001
v 1.749996 -0.299995 -12.000001
v 1.749995 -0.299995 -16.000000
v 1.749993 -0.299995 -20.000000
v 1.749992 -0.299995 -24.000000
v 1.749991 -0.299995 -28.000000
v 1.750009 0.009995 28.000000
v 1.750008 -0.190005 24.000000
v 1.750007 -0.190005 20.000000
v 1.750005 -0.190005 15.999999
v 1.750004 -0.190005 11.999999
v 1.750003 -0.190005 8.000000
v 1.750001 -0.190005 4.000000
v 1.750000 -0.190005 -0.000001
v 1.749999 -0.190005 -4.000000
v 1.749997 -0.190005 -8.000001
v 1.749996 -0.190005 -12.000001
v 1.749995 -0.190005 -16.000000
v 1.749993 -0.190005 -20.000000
v 1.749992 -0.190005 -24.000000
v 1.749991 -0.190005 -28.000000
v 4.750009 0.009995 27.999998
v 4.750008 0.009995 23.999998
v 4.750007 0.009995 19.999998
v 4.750005 0.009995 15.999998
v 4.750004 0.009995 11.999998
v 4.750002 0.009995 7.999999
v 4.750001 0.009995 3.999999
v 4.750000 0.009995 -0.000002
v 4.749999 0.009995 -4.000001
v 4.749998 0.009995 -8.000002
v 4.749996 0.009995 -12.000002
v 4.749995 0.009995 -16.000002
v 4.749993 0.009995 -20.000002
v 4.749992 0.009995 -24.000002
v 4.749991 0.009995 -28.000002
v 5.190009 -0.940005 27.999998
v 5.190008 -0.940005 23.999998
v 5.190007 -0.940005 19.999998
v 5.190005 -0.940005 15.999998
v 5.190004 -0.940005 11.999998
v 5.190002 -0.940005 7.999998
v 5.190001 -0.940005 3.999998
v 5.190000 -0.940005 -0.000002
v 5.189999 -0.940005 -4.000002
v 5.189998 -0.940005 -8.000002
v 5.189996 -0.940005 -12.000002
v 5.189995 -0.940005 -16.000002
v 5.189993 -0.940005 -20.000002
v 5.189992 -0.940005 -24.000002
v 5.189991 -0.940005 -28.000002
v -1.749991 -0.299995 28.000000
v -1.749992 -0.299995 24.000000
v -1.749993 -0.299995 20.000000
v -1.749995 -0.299995 16.000000
v -1.749996 -0.299995 12.000001
v -1.749997 -0.299995 8.000001
v -1.749999 -0.299995 4.000000
v -1.750000 -0.299995 0.000001
v -1.750001 -0.299995 -4.000000
v -1.750003 -0.299995 -8.000000
v -1.750004 -0.299995 -11.999999
v -1.750005 -0.299995 -15.999999
v -1.750007 -0.299995 -20.000000
v -1.750008 -0.299995 -24.000000
v -1.750009 -0.299995 -28.000000
v 0.000814 -0.299995 -28.000000
v 0.000815 -0.299995 -24.000000
v 0.000817 -0.299995 -20.000000
v 0.000818 -0.299995 -16.000000
v 0.000819 -0.299995 -12.000000
v 0.000821 -0.299995 -8.000000
v 0.000822 -0.299995 -4.000000
v 0.000823 -0.299995 -0.000000
v 0.000824 -0.299995 4.000000
v 0.000826 -0.299995 8.000000
v 0.000827 -0.299995 12.000000
v 0.000828 -0.299995 16.000000
v 0.000830 -0.299995 20.000000
v 0.000831 -0.299995 24.000000
v 0.000832 -0.299995 28.000000
v -1.749991 0.009995 28.000000
v -1.749992 -0.190005 24.000000
v -1.749993 -0.190005 20.000000
v -1.749995 -0.190005 16.000000
v -1.749996 -0.190005 12.000001
v -1.749997 -0.190005 8.000001
v -1.749999 -0.190005 4.000000
v -1.750000 -0.190005 0.000001
v -1.750001 -0.190005 -4.000000
v -1.750003 -0.190005 -8.000000
v -1.750004 -0.190005 -11.999999
v -1.750005 -0.190005 -15.999999
v -1.750007 -0.190005 -20.000000
v -1.750008 -0.190005 -24.000000
v -1.750009 -0.190005 -28.000000
v -4.749991 0.009995 28.000002
v -4.749992 0.009995 24.000002
v -4.749993 0.009995 20.000002
v -4.749995 0.009995 16.000002
v -4.749996 0.009995 12.000002
v -4.749998 0.009995 8.000002
v -4.749999 0.009995 4.000001
v -4.750000 0.009995 0.000002
v -4.750001 0.009995 -3.999999
v -4.750002 0.009995 -7.999999
v -4.750004 0.009995 -11.999998
v -4.750005 0.009995 -15.999998
v -4.750007 0.009995 -19.999998
v -4.750008 0.009995 -23.999998
v -4.750009 0.009995 -27.999998
v -5.189991 -0.940005 28.000002
v -5.189992 -0.940005 24.000002
v -5.189993 -0.940005 20.000002
v -5.189995 -0.940005 16.000002
v -5.189996 -0.940005 12.000002
v -5.189998 -0.940005 8.000002
v -5.189999 -0.940005 4.000002
v -5.190000 -0.940005 0.000002
v -5.190001 -0.940005 -3.999998
v -5.190002 -0.940005 -7.999998
v -5.190004 -0.940005 -11.999998
v -5.190005 -0.940005 -15.999998
v -5.190007 -0.940005 -19.999998
v -5.190008 -0.940005 -23.999998
v -5.190009 -0.940005 -27.999998
v 3.250009 0.009995 27.999998
v 3.250008 0.009995 23.999998
v 3.250006 0.009995 19.999998
v 3.250005 0.009995 15.999999
v 3.250004 0.009995 11.999999
v 3.250003 0.009995 7.999999
v 3.250001 0.009995 3.999999
v 3.250000 0.009995 -0.000001
v 3.249999 0.009995 -4.000001
v 3.249997 0.009995 -8.000001
v 3.249996 0.009995 -12.000001
v 3.249995 0.009995 -16.000002
v 3.249994 0.009995 -20.000002
v 3.249992 0.009995 -24.000002
v 3.249991 0.009995 -28.000002
v -3.250009 0.009995 -27.999998
v -3.250008 0.009995 -23.999998
v -3.250006 0.009995 -19.999998
v -3.250005 0.009995 -15.999999
v -3.250004 0.009995 -11.999999
v -3.250003 0.009995 -7.999999
v -3.250001 0.009995 -3.999999
v -3.250000 0.009995 0.000001
v -3.249999 0.009995 4.000001
v -3.249997 0.009995 8.000001
v -3.249996 0.009995 12.000001
v -3.249995 0.009995 16.000002
v -3.249994 0.009995 20.000002
v -3.249992 0.009995 24.000002
v -3.249991 0.009995 28.000002
vn -1.0000 -0.0000 -0.0000
vn 0.9074 0.4203 -0.0000
vn -0.0000 1.0000 -0.0000
vn 1.0000 -0.0000 -0.0000
vn -0.9074 0.4203 -0.0000
vn 0.1322 0.9912 -0.0000
vn -0.1320 0.9900 -0.0495
vn -0.1322 0.9912 -0.0000
vn 0.1320 0.9900 -0.0495
vt 0.206106 1.927215
vt 0.801784 1.000000
vt 0.206106 -0.927215
vt 0.801785 0.000000
vt 0.192604 1.927215
vt 0.185803 -0.927215
vt 0.192604 -0.927215
vt 0.185803 1.927215
vt 0.053674 -0.927215
vt 0.003494 1.000000
vt 0.003494 0.000000
vt 0.053674 1.927215
vt 0.019470 1.000000
vt 0.019470 0.000000
vt 0.252096 1.000000
vt 0.206106 1.927215
vt 0.527070 1.000000
vt 0.252097 0.000000
vt 0.206106 -0.927215
vt 0.527071 0.000000
vt 0.192604 1.927215
vt 0.185803 1.927215
vt 0.192604 -0.927215
vt 0.185803 -0.927215
vt 0.053674 1.927215
vt 0.004462 0.000000
vt 0.053674 -0.927215
vt 0.004462 1.000000
vt 0.020438 0.000000
vt 0.020438 1.000000
vt 0.119739 -0.927215
vt 0.119738 1.927215
vt 0.206106 -0.748813
vt 0.801785 0.062500
vt 0.206106 -0.570411
vt 0.801785 0.125000
vt 0.206106 -0.392009
vt 0.801785 0.187500
vt 0.206106 -0.213608
vt 0.801785 0.250000
vt 0.206106 -0.035206
vt 0.801785 0.312500
vt 0.206106 0.143196
vt 0.801785 0.375000
vt 0.206106 0.321598
vt 0.801785 0.437500
vt 0.206106 0.500000
vt 0.801785 0.500000
vt 0.206106 0.678402
vt 0.801785 0.562500
vt 0.206106 0.856804
vt 0.801785 0.625000
vt 0.206106 1.035206
vt 0.801785 0.687500
vt 0.206106 1.213608
vt 0.801785 0.750000
vt 0.206106 1.392009
vt 0.801785 0.812500
vt 0.206106 1.570411
vt 0.801784 0.875000
vt 0.206106 1.748813
vt 0.801784 0.937500
vt 0.192604 -0.748813
vt 0.185803 1.748813
vt 0.185803 1.570411
vt 0.192604 -0.570411
vt 0.185803 1.392009
vt 0.192604 -0.392009
vt 0.185803 1.213608
vt 0.192604 -0.213608
vt 0.185803 1.035206
vt 0.192604 -0.035206
vt 0.185803 0.856804
vt 0.192604 0.143196
vt 0.185803 0.678402
vt 0.192604 0.321598
vt 0.185803 0.500000
vt 0.192604 0.500000
vt 0.185803 0.321598
vt 0.192604 0.678402
vt 0.185803 0.143196
vt 0.192604 0.856804
vt 0.185803 -0.035206
vt 0.192604 1.035206
vt 0.185803 -0.213608
vt 0.192604 1.213608
vt 0.185803 -0.392009
vt 0.192604 1.392009
vt 0.185803 -0.570411
vt 0.192604 1.570411
vt 0.185803 -0.748813
vt 0.192604 1.748813
vt 0.003494 0.062500
vt 0.053674 1.748813
vt 0.053674 1.570411
vt 0.003494 0.125000
vt 0.053674 1.392009
vt 0.003494 0.187500
vt 0.003494 0.250000
vt 0.053674 1.213608
vt 0.003494 0.312500
vt 0.053674 1.035206
vt 0.003494 0.375000
vt 0.053674 0.856804
vt 0.003494 0.437500
vt 0.053674 0.678402
vt 0.053674 0.500000
vt 0.003494 0.500000
vt 0.053674 0.321598
vt 0.003494 0.562500
vt 0.053674 0.143196
vt 0.003494 0.625000
vt 0.053674 -0.035206
vt 0.003494 0.687500
vt 0.053674 -0.213608
vt 0.003494 0.750000
vt 0.053674 -0.392009
vt 0.003494 0.812500
vt 0.053674 -0.570411
vt 0.003494 0.875000
vt 0.053674 -0.748813
vt 0.003494 0.937500
vt 0.019470 0.062500
vt 0.019470 0.125000
vt 0.019470 0.187500
vt 0.019470 0.250000
vt 0.019470 0.312500
vt 0.019470 0.375000
vt 0.019470 0.437500
vt 0.019470 0.500000
vt 0.019470 0.562500
vt 0.019470 0.625000
vt 0.019470 0.687500
vt 0.019470 0.750000
vt 0.019470 0.812500
vt 0.019470 0.875000
vt 0.019470 0.937500
vt 0.252097 0.062500
vt 0.206106 -0.748813
vt 0.252097 0.125000
vt 0.206106 -0.570411
vt 0.252097 0.187500
vt 0.206106 -0.392009
vt 0.252097 0.250000
vt 0.206106 -0.213608
vt 0.252097 0.312500
vt 0.206106 -0.035206
vt 0.252097 0.375000
vt 0.206106 0.143196
vt 0.252097 0.437500
vt 0.206106 0.321598
vt 0.206106 0.500000
vt 0.252097 0.500000
vt 0.252097 0.562500
vt 0.206106 0.678402
vt 0.252097 0.625000
vt 0.206106 0.856804
vt 0.252097 0.687500
vt 0.206106 1.035206
vt 0.252097 0.750000
vt 0.206106 1.213608
vt 0.252096 0.812500
vt 0.206106 1.392009
vt 0.252096 0.875000
vt 0.206106 1.570411
vt 0.252096 0.937500
vt 0.206106 1.748813
vt 0.527070 0.937500
vt 0.527070 0.875000
vt 0.527070 0.812500
vt 0.527070 0.750000
vt 0.527070 0.687500
vt 0.527070 0.625000
vt 0.527070 0.562500
vt 0.527070 0.500000
vt 0.527070 0.437500
vt 0.527070 0.375000
vt 0.527070 0.312500
vt 0.527071 0.250000
vt 0.527071 0.187500
vt 0.527071 0.125000
vt 0.527071 0.062500
vt 0.185803 -0.748813
vt 0.192604 -0.748813
vt 0.185803 -0.570411
vt 0.192604 -0.570411
vt 0.192604 -0.392009
vt 0.185803 -0.392009
vt 0.192604 -0.213608
vt 0.185803 -0.213608
vt 0.192604 -0.035206
vt 0.185803 -0.035206
vt 0.192604 0.143196
vt 0.185803 0.143196
vt 0.192604 0.321598
vt 0.185803 0.321598
vt 0.192604 0.500000
vt 0.185803 0.500000
vt 0.192604 0.678402
vt 0.185803 0.678402
vt 0.192604 0.856804
vt 0.185803 0.856804
vt 0.192604 1.035206
vt 0.185803 1.035206
vt 0.192604 1.213608
vt 0.185803 1.213608
vt 0.192604 1.392009
vt 0.185803 1.392009
vt 0.192604 1.570411
vt 0.185803 1.570411
vt 0.192604 1.748813
vt 0.185803 1.748813
vt 0.053674 -0.748813
vt 0.004462 0.937500
vt 0.004462 0.875000
vt 0.053674 -0.570411
vt 0.053674 -0.392009
vt 0.004462 0.812500
vt 0.053674 -0.213608
vt 0.004462 0.750000
vt 0.004462 0.687500
vt 0.053674 -0.035206
vt 0.004462 0.625000
vt 0.053674 0.143196
vt 0.004462 0.562500
vt 0.053674 0.321598
vt 0.053674 0.500000
vt 0.004462 0.500000
vt 0.053674 0.678402
vt 0.004462 0.437500
vt 0.053674 0.856804
vt 0.004462 0.375000
vt 0.053674 1.035206
vt 0.004462 0.312500
vt 0.053674 1.213608
vt 0.004462 0.250000
vt 0.053674 1.392009
vt 0.004462 0.187500
vt 0.053674 1.570411
vt 0.004462 0.125000
vt 0.053674 1.748813
vt 0.004462 0.062500
vt 0.020438 0.937500
vt 0.020438 0.875000
vt 0.020438 0.812500
vt 0.020438 0.750000
vt 0.020438 0.687500
vt 0.020438 0.625000
vt 0.020438 0.562500
vt 0.020438 0.500000
vt 0.020438 0.437500
vt 0.020438 0.375000
vt 0.020438 0.312500
vt 0.020438 0.250000
vt 0.020438 0.187500
vt 0.020438 0.125000
vt 0.020438 0.062500
vt 0.119738 1.748813
vt 0.119738 1.570411
vt 0.119739 1.392009
vt 0.119739 1.213608
vt 0.119739 1.035206
vt 0.119739 0.856804
vt 0.119739 0.678402
vt 0.119739 0.500000
vt 0.119739 0.321598
vt 0.119739 0.143196
vt 0.119739 -0.035206
vt 0.119739 -0.213608
vt 0.119739 -0.392009
vt 0.119739 -0.570411
vt 0.119739 -0.748813
vt 0.119738 1.748813
vt 0.119738 1.570411
vt 0.119738 1.392009
vt 0.119738 1.213608
vt 0.119738 1.035206
vt 0.119738 0.856804
vt 0.119738 0.678402
vt 0.119738 0.500000
vt 0.119738 0.321598
vt 0.119738 0.143196
vt 0.119738 -0.035206
vt 0.119738 -0.213608
vt 0.119738 -0.392009
vt 0.119738 -0.570411
vt 0.119738 -0.748813
s 0
f 4/7/1 21/33/1 2/3/1
f 4/7/1 36/63/1 21/33/1
f 8/14/2 51/93/2 6/11/2
f 12/20/3 81/138/3 11/18/3
f 14/23/4 81/139/4 111/184/4
f 6/12/3 51/94/3 156/258/3
f 18/30/5 126/214/5 141/243/5
f 8/14/2 66/123/2 51/93/2
f 12/20/3 110/182/3 81/138/3
f 171/273/6 13/22/6 20/32/6
f 172/274/6 125/212/6 171/273/6
f 173/275/6 124/210/6 172/274/6
f 174/276/6 123/208/6 173/275/6
f 175/277/6 122/206/6 174/276/6
f 176/278/6 121/204/6 175/277/6
f 177/279/6 120/202/6 176/278/6
f 178/280/6 119/200/6 177/279/6
f 179/281/6 118/198/6 178/280/6
f 180/282/6 117/196/6 179/281/6
f 181/283/6 116/194/6 180/282/6
f 182/284/6 115/192/6 181/283/6
f 183/285/6 114/190/6 182/284/6
f 184/286/6 113/188/6 183/285/6
f 54/100/3 160/262/3 159/261/3
f 36/64/7 157/259/7 37/65/7
f 169/271/8 50/91/8 49/89/8
f 168/270/8 49/89/8 48/87/8
f 167/269/8 48/87/8 47/85/8
f 166/268/8 47/85/8 46/83/8
f 165/267/8 46/83/8 45/81/8
f 164/266/8 45/81/8 44/79/8
f 163/265/8 44/79/8 43/77/8
f 162/264/8 43/77/8 42/75/8
f 161/263/8 42/75/8 41/73/8
f 160/262/8 41/73/8 40/71/8
f 159/261/8 40/71/8 39/69/8
f 158/260/8 39/69/8 38/67/8
f 157/259/8 38/67/8 37/65/8
f 55/102/3 161/263/3 160/262/3
f 14/24/3 111/183/3 185/287/3
f 154/256/5 140/242/5 155/257/5
f 153/255/5 139/240/5 154/256/5
f 152/254/5 138/238/5 153/255/5
f 151/253/5 137/236/5 152/254/5
f 150/252/5 136/234/5 151/253/5
f 149/251/5 135/232/5 150/252/5
f 148/250/5 134/230/5 149/251/5
f 147/249/5 133/228/5 148/250/5
f 146/248/5 132/225/5 147/249/5
f 145/247/5 131/223/5 146/248/5
f 144/246/5 130/221/5 145/247/5
f 143/245/5 129/220/5 144/246/5
f 142/244/5 128/218/5 143/245/5
f 141/243/5 127/215/5 142/244/5
f 140/241/3 20/32/3 15/25/3
f 139/239/3 171/273/3 140/241/3
f 138/237/3 172/274/3 139/239/3
f 137/235/3 173/275/3 138/237/3
f 136/233/3 174/276/3 137/235/3
f 135/231/3 175/277/3 136/233/3
f 134/229/3 176/278/3 135/231/3
f 133/227/3 177/279/3 134/229/3
f 132/226/3 178/280/3 133/227/3
f 110/182/3 22/36/3 109/181/3
f 109/181/3 23/38/3 108/180/3
f 129/219/3 181/283/3 130/222/3
f 128/217/3 182/284/3 129/219/3
f 127/216/3 183/285/3 128/217/3
f 126/213/3 184/286/3 127/216/3
f 125/211/4 9/16/4 13/21/4
f 124/209/4 95/167/4 125/211/4
f 123/207/4 94/165/4 124/209/4
f 122/205/4 93/163/4 123/207/4
f 121/203/4 92/161/4 122/205/4
f 120/201/4 91/159/4 121/203/4
f 119/199/4 90/157/4 120/201/4
f 118/197/4 89/155/4 119/199/4
f 117/195/4 88/152/4 118/197/4
f 116/193/4 87/151/4 117/195/4
f 115/191/4 86/149/4 116/193/4
f 114/189/4 85/147/4 115/191/4
f 113/187/4 84/145/4 114/189/4
f 112/186/4 83/143/4 113/187/4
f 56/104/3 162/264/3 161/263/3
f 184/286/9 111/183/9 112/185/9
f 97/169/3 95/166/3 94/164/3
f 98/170/3 94/164/3 93/162/3
f 99/171/3 93/162/3 92/160/3
f 100/172/3 92/160/3 91/158/3
f 101/173/3 91/158/3 90/156/3
f 102/174/3 90/156/3 89/154/3
f 103/175/3 89/154/3 88/153/3
f 104/176/3 88/153/3 87/150/3
f 105/177/3 87/150/3 86/148/3
f 106/178/3 86/148/3 85/146/3
f 107/179/3 85/146/3 84/144/3
f 108/180/3 84/144/3 83/142/3
f 109/181/3 83/142/3 82/140/3
f 110/182/3 82/140/3 81/138/3
f 80/137/2 5/10/2 65/122/2
f 79/136/2 65/122/2 64/120/2
f 78/135/2 64/120/2 63/118/2
f 77/134/2 63/118/2 62/116/2
f 76/133/2 62/116/2 61/114/2
f 75/132/2 61/114/2 60/112/2
f 74/131/2 60/112/2 59/110/2
f 73/130/2 59/110/2 58/108/2
f 72/129/2 58/108/2 57/105/2
f 71/128/2 57/105/2 56/103/2
f 70/127/2 56/103/2 55/101/2
f 69/126/2 55/101/2 54/99/2
f 68/125/2 54/99/2 53/98/2
f 67/124/2 53/98/2 52/96/2
f 66/123/2 52/96/2 51/93/2
f 65/121/3 19/31/3 170/272/3
f 64/119/3 170/272/3 169/271/3
f 63/117/3 169/271/3 168/270/3
f 62/115/3 168/270/3 167/269/3
f 61/113/3 167/269/3 166/268/3
f 60/111/3 166/268/3 165/267/3
f 59/109/3 165/267/3 164/266/3
f 58/107/3 164/266/3 163/265/3
f 57/106/3 163/265/3 162/264/3
f 21/33/1 37/66/1 22/35/1
f 96/168/3 9/15/3 95/166/3
f 155/257/5 15/26/5 17/29/5
f 170/272/8 3/6/8 50/91/8
f 12/20/3 21/34/3 110/182/3
f 53/97/3 159/261/3 158/260/3
f 52/95/3 158/260/3 157/259/3
f 51/94/3 157/259/3 156/258/3
f 50/92/1 1/1/1 35/61/1
f 49/90/1 35/61/1 34/59/1
f 48/88/1 34/59/1 33/57/1
f 47/86/1 33/57/1 32/55/1
f 46/84/1 32/55/1 31/53/1
f 45/82/1 31/53/1 30/51/1
f 44/80/1 30/51/1 29/49/1
f 43/78/1 29/49/1 28/47/1
f 42/76/1 28/47/1 27/45/1
f 41/74/1 27/45/1 26/43/1
f 40/72/1 26/43/1 25/41/1
f 39/70/1 25/41/1 24/39/1
f 38/68/1 24/39/1 23/37/1
f 112/186/4 81/139/4 82/141/4
f 37/66/1 23/37/1 22/35/1
f 96/168/3 1/2/3 10/17/3
f 97/169/3 35/62/3 96/168/3
f 98/170/3 34/60/3 97/169/3
f 99/171/3 33/58/3 98/170/3
f 100/172/3 32/56/3 99/171/3
f 101/173/3 31/54/3 100/172/3
f 102/174/3 30/52/3 101/173/3
f 103/175/3 29/50/3 102/174/3
f 104/176/3 28/48/3 103/175/3
f 105/177/3 27/46/3 104/176/3
f 106/178/3 26/44/3 105/177/3
f 107/179/3 25/42/3 106/178/3
f 108/180/3 24/40/3 107/179/3
f 130/222/3 180/282/3 131/224/3
f 50/92/1 3/5/1 1/1/1
f 51/94/3 52/95/3 157/259/3
f 52/95/3 53/97/3 158/260/3
f 53/97/3 54/100/3 159/261/3
f 12/20/3 2/4/3 21/34/3
f 170/272/8 19/31/8 3/6/8
f 155/257/5 140/242/5 15/26/5
f 96/168/3 10/17/3 9/15/3
f 21/33/1 36/63/1 37/66/1
f 57/106/3 58/107/3 163/265/3
f 58/107/3 59/109/3 164/266/3
f 59/109/3 60/111/3 165/267/3
f 60/111/3 61/113/3 166/268/3
f 61/113/3 62/115/3 167/269/3
f 62/115/3 63/117/3 168/270/3
f 63/117/3 64/119/3 169/271/3
f 64/119/3 65/121/3 170/272/3
f 65/121/3 5/9/3 19/31/3
f 66/123/2 67/124/2 52/96/2
f 67/124/2 68/125/2 53/98/2
f 68/125/2 69/126/2 54/99/2
f 69/126/2 70/127/2 55/101/2
f 70/127/2 71/128/2 56/103/2
f 71/128/2 72/129/2 57/105/2
f 36/64/3 4/8/3 156/258/3
f 73/130/2 74/131/2 59/110/2
f 74/131/2 75/132/2 60/112/2
f 75/132/2 76/133/2 61/114/2
f 76/133/2 77/134/2 62/116/2
f 77/134/2 78/135/2 63/118/2
f 78/135/2 79/136/2 64/120/2
f 79/136/2 80/137/2 65/122/2
f 80/137/2 7/13/2 5/10/2
f 110/182/3 109/181/3 82/140/3
f 109/181/3 108/180/3 83/142/3
f 108/180/3 107/179/3 84/144/3
f 107/179/3 106/178/3 85/146/3
f 106/178/3 105/177/3 86/148/3
f 105/177/3 104/176/3 87/150/3
f 14/23/4 11/19/4 81/139/4
f 103/175/3 102/174/3 89/154/3
f 102/174/3 101/173/3 90/156/3
f 101/173/3 100/172/3 91/158/3
f 100/172/3 99/171/3 92/160/3
f 99/171/3 98/170/3 93/162/3
f 98/170/3 97/169/3 94/164/3
f 97/169/3 96/168/3 95/166/3
f 184/286/3 185/287/3 111/183/3
f 56/104/3 57/106/3 162/264/3
f 112/186/4 82/141/4 83/143/4
f 113/187/4 83/143/4 84/145/4
f 114/189/4 84/145/4 85/147/4
f 115/191/4 85/147/4 86/149/4
f 116/193/4 86/149/4 87/151/4
f 117/195/4 87/151/4 88/152/4
f 118/197/4 88/152/4 89/155/4
f 119/199/4 89/155/4 90/157/4
f 120/201/4 90/157/4 91/159/4
f 121/203/4 91/159/4 92/161/4
f 122/205/4 92/161/4 93/163/4
f 123/207/4 93/163/4 94/165/4
f 124/209/4 94/165/4 95/167/4
f 125/211/4 95/167/4 9/16/4
f 126/213/3 185/287/3 184/286/3
f 128/217/3 183/285/3 182/284/3
f 129/219/3 182/284/3 181/283/3
f 109/181/3 22/36/3 23/38/3
f 110/182/3 21/34/3 22/36/3
f 132/226/3 179/281/3 178/280/3
f 133/227/3 178/280/3 177/279/3
f 134/229/3 177/279/3 176/278/3
f 135/231/3 176/278/3 175/277/3
f 136/233/3 175/277/3 174/276/3
f 137/235/3 174/276/3 173/275/3
f 138/237/3 173/275/3 172/274/3
f 139/239/3 172/274/3 171/273/3
f 140/241/3 171/273/3 20/32/3
f 141/243/5 126/214/5 127/215/5
f 142/244/5 127/215/5 128/218/5
f 143/245/5 128/218/5 129/220/5
f 144/246/5 129/220/5 130/221/5
f 145/247/5 130/221/5 131/223/5
f 146/248/5 131/223/5 132/225/5
f 4/8/3 6/12/3 156/258/3
f 148/250/5 133/228/5 134/230/5
f 149/251/5 134/230/5 135/232/5
f 150/252/5 135/232/5 136/234/5
f 151/253/5 136/234/5 137/236/5
f 152/254/5 137/236/5 138/238/5
f 153/255/5 138/238/5 139/240/5
f 154/256/5 139/240/5 140/242/5
f 16/27/3 14/24/3 185/287/3
f 126/213/3 16/27/3 185/287/3
f 55/102/3 56/104/3 161/263/3
f 157/259/8 158/260/8 38/67/8
f 158/260/8 159/261/8 39/69/8
f 159/261/8 160/262/8 40/71/8
f 160/262/8 161/263/8 41/73/8
f 161/263/8 162/264/8 42/75/8
f 162/264/8 163/265/8 43/77/8
f 163/265/8 164/266/8 44/79/8
f 164/266/8 165/267/8 45/81/8
f 165/267/8 166/268/8 46/83/8
f 166/268/8 167/269/8 47/85/8
f 167/269/8 168/270/8 48/87/8
f 168/270/8 169/271/8 49/89/8
f 169/271/8 170/272/8 50/91/8
f 36/64/3 156/258/3 157/259/3
f 54/100/3 55/102/3 160/262/3
f 184/286/6 112/185/6 113/188/6
f 183/285/6 113/188/6 114/190/6
f 182/284/6 114/190/6 115/192/6
f 181/283/6 115/192/6 116/194/6
f 180/282/6 116/194/6 117/196/6
f 179/281/6 117/196/6 118/198/6
f 178/280/6 118/198/6 119/200/6
f 177/279/6 119/200/6 120/202/6
f 176/278/6 120/202/6 121/204/6
f 175/277/6 121/204/6 122/206/6
f 174/276/6 122/206/6 123/208/6
f 173/275/6 123/208/6 124/210/6
f 172/274/6 124/210/6 125/212/6
f 171/273/6 125/212/6 13/22/6
f 147/249/5 132/225/5 133/228/5
f 104/176/3 103/175/3 88/153/3
f 72/129/2 73/130/2 58/108/2
f 49/90/1 50/92/1 35/61/1
f 48/88/1 49/90/1 34/59/1
f 47/86/1 48/88/1 33/57/1
f 46/84/1 47/86/1 32/55/1
f 45/82/1 46/84/1 31/53/1
f 44/80/1 45/82/1 30/51/1
f 43/78/1 44/80/1 29/49/1
f 42/76/1 43/78/1 28/47/1
f 41/74/1 42/76/1 27/45/1
f 40/72/1 41/74/1 26/43/1
f 39/70/1 40/72/1 25/41/1
f 38/68/1 39/70/1 24/39/1
f 112/186/4 111/184/4 81/139/4
f 37/66/1 38/68/1 23/37/1
f 96/168/3 35/62/3 1/2/3
f 97/169/3 34/60/3 35/62/3
f 98/170/3 33/58/3 34/60/3
f 18/30/5 16/28/5 126/214/5
f 99/171/3 32/56/3 33/58/3
f 100/172/3 31/54/3 32/56/3
f 101/173/3 30/52/3 31/54/3
f 102/174/3 29/50/3 30/52/3
f 103/175/3 28/48/3 29/50/3
f 104/176/3 27/46/3 28/48/3
f 105/177/3 26/44/3 27/46/3
f 106/178/3 25/42/3 26/44/3
f 107/179/3 24/40/3 25/42/3
f 108/180/3 23/38/3 24/40/3
f 130/222/3 181/283/3 180/282/3
f 131/224/3 180/282/3 179/281/3
f 127/216/3 184/286/3 183/285/3
f 131/224/3 179/281/3 132/226/3
